<svg width="565" height="412" viewBox="0 0 565 412" fill="none" xmlns="http://www.w3.org/2000/svg">
<path d="M9.05461 411.154L21.495 399.103L4.83793 394.355L9.05461 411.154ZM12.4098 404.855L12.8338 403.416L9.95613 402.568L9.53214 404.007L12.4098 404.855ZM13.7099 390.7L13.2354 392.123L16.0813 393.072L16.5558 391.649L13.7099 390.7ZM21.171 378.58L21.6953 377.175L18.8845 376.126L18.3602 377.532L21.171 378.58ZM23.4573 364.565L22.8843 365.951L25.6568 367.097L26.2297 365.711L23.4573 364.565ZM31.7498 352.986L32.3704 351.621L29.6393 350.379L29.0186 351.745L31.7498 352.986ZM34.9996 339.161L34.3327 340.504L37.02 341.838L37.6868 340.494L34.9996 339.161ZM44.0607 328.178L44.7723 326.857L42.1314 325.434L41.4198 326.754L44.0607 328.178ZM48.2373 314.59L47.4825 315.887L50.0751 317.396L50.8299 316.1L48.2373 314.59ZM57.9958 304.238L58.792 302.967L56.2495 301.375L55.4533 302.646L57.9958 304.238ZM63.0438 290.943L62.2079 292.188L64.699 293.86L65.5348 292.614L63.0438 290.943ZM73.4322 281.23L74.306 280.011L71.8675 278.264L70.9937 279.483L73.4322 281.23ZM79.289 268.267L78.3792 269.46L80.7643 271.279L81.6741 270.087L79.289 268.267ZM90.2395 259.193L91.1836 258.027L88.8523 256.139L87.9082 257.305L90.2395 259.193ZM96.8391 246.592L95.8625 247.73L98.1396 249.684L99.1162 248.545L96.8391 246.592ZM108.285 238.147L109.292 237.036L107.069 235.021L106.062 236.133L108.285 238.147ZM115.562 225.926L114.526 227.011L116.695 229.083L117.731 227.999L115.562 225.926ZM127.439 218.099L128.503 217.041L126.388 214.914L125.324 215.971L127.439 218.099ZM135.333 206.266L134.243 207.297L136.305 209.476L137.395 208.445L135.333 206.266ZM147.583 199.036L148.697 198.031L146.688 195.803L145.574 196.808L147.583 199.036ZM156.034 187.594L154.897 188.573L156.854 190.847L157.991 189.868L156.034 187.594ZM168.607 180.938L169.766 179.986L167.86 177.668L166.701 178.621L168.607 180.938ZM177.562 169.887L176.383 170.814L178.238 173.172L179.417 172.245L177.562 169.887ZM190.411 163.781L191.609 162.879L189.804 160.483L188.606 161.385L190.411 163.781ZM199.822 153.113L198.606 153.991L200.362 156.423L201.578 155.545L199.822 153.113ZM212.905 147.536L214.138 146.682L212.43 144.215L211.197 145.07L212.905 147.536ZM222.732 137.242L221.482 138.073L223.143 140.571L224.393 139.74L222.732 137.242ZM236.01 132.171L237.274 131.364L235.659 128.835L234.395 129.643L236.01 132.171ZM246.216 122.243L244.937 123.027L246.507 125.584L247.785 124.799L246.216 122.243ZM259.672 117.647L260.964 116.884L259.44 114.301L258.148 115.063L259.672 117.647ZM270.209 108.084L268.904 108.824L270.385 111.433L271.689 110.693L270.209 108.084ZM283.822 103.94L285.139 103.222L283.702 100.588L282.385 101.307L283.822 103.94ZM294.651 94.7389L293.323 95.4364L294.718 98.0923L296.046 97.3948L294.651 94.7389ZM308.406 91.0267L309.745 90.3501L308.391 87.6726L307.053 88.3492L308.406 91.0267ZM319.512 82.1722L318.163 82.8282L319.475 85.5261L320.824 84.8701L319.512 82.1722ZM333.372 78.884L334.731 78.2483L333.46 75.531L332.101 76.1667L333.372 78.884ZM344.76 70.3574L343.393 70.973L344.624 73.7087L345.992 73.0932L344.76 70.3574ZM358.674 67.4959L360.051 66.9002L358.86 64.1469L357.483 64.7426L358.674 67.4959ZM370.334 59.2906L368.949 59.8665L370.101 62.6366L371.486 62.0606L370.334 59.2906ZM384.317 56.831L385.71 56.2746L384.598 53.4886L383.205 54.045L384.317 56.831ZM396.189 48.9643L394.789 49.5011L395.862 52.3024L397.263 51.7656L396.189 48.9643ZM410.279 46.8813L411.687 46.3641L410.653 43.5481L409.245 44.0653L410.279 46.8813ZM422.298 39.3725L420.883 39.8701L421.879 42.7002L423.294 42.2025L422.298 39.3725ZM436.471 37.671L437.893 37.1932L436.937 34.3495L435.515 34.8274L436.471 37.671ZM448.758 30.4794L447.33 30.9373L448.246 33.7941L449.674 33.3362L448.758 30.4794ZM462.869 29.2088L464.304 28.7712L463.428 25.9017L461.994 26.3394L462.869 29.2088ZM475.386 22.3595L473.945 22.7763L474.779 25.6582L476.22 25.2413L475.386 22.3595ZM489.614 21.4737L491.061 21.0783L490.271 18.1844L488.824 18.5798L489.614 21.4737ZM502.264 15.0173L500.811 15.3904L501.557 18.2961L503.01 17.923L502.264 15.0173ZM516.408 14.5954L517.866 14.2456L517.167 11.3283L515.708 11.6781L516.408 14.5954ZM529.349 8.52912L527.884 8.85381L528.533 11.7827L529.998 11.458L529.349 8.52912ZM543.612 8.56987L545.082 8.27242L544.487 5.332L543.017 5.62944L543.612 8.56987ZM556.72 3.00006L555.244 3.26732L555.778 6.21931L557.254 5.95206L556.72 3.00006ZM16.5558 391.649C18.0226 387.25 19.5617 382.894 21.171 378.58L18.3602 377.532C16.7387 381.879 15.1878 386.268 13.7099 390.7L16.5558 391.649ZM26.2297 365.711C28.0007 361.426 29.8415 357.185 31.7498 352.986L29.0186 351.745C27.0961 355.975 25.2416 360.248 23.4573 364.565L26.2297 365.711ZM37.6868 340.494C39.7458 336.346 41.8712 332.24 44.0607 328.178L41.4198 326.754C39.2145 330.846 37.0737 334.982 34.9996 339.161L37.6868 340.494ZM50.8299 316.1C53.1569 312.103 55.5463 308.149 57.9958 304.238L55.4533 302.646C52.9869 306.584 50.5808 310.565 48.2373 314.59L50.8299 316.1ZM65.5348 292.614C68.1101 288.777 70.7433 284.983 73.4322 281.23L70.9937 279.483C68.2872 283.26 65.6364 287.079 63.0438 290.943L65.5348 292.614ZM81.6741 270.087C84.4766 266.413 87.3326 262.782 90.2395 259.193L87.9082 257.305C84.9833 260.916 82.1094 264.57 79.289 268.267L81.6741 270.087ZM99.1162 248.545C102.125 245.038 105.182 241.572 108.285 238.147L106.062 236.133C102.941 239.577 99.8655 243.063 96.8391 246.592L99.1162 248.545ZM117.731 227.999C120.924 224.658 124.161 221.358 127.439 218.099L125.324 215.971C122.028 219.248 118.773 222.566 115.562 225.926L117.731 227.999ZM137.395 208.445C140.753 205.268 144.15 202.132 147.583 199.036L145.574 196.808C142.123 199.919 138.709 203.072 135.333 206.266L137.395 208.445ZM157.991 189.868C161.496 186.852 165.036 183.875 168.607 180.938L166.701 178.621C163.113 181.572 159.557 184.563 156.034 187.594L157.991 189.868ZM179.417 172.245C183.053 169.384 186.718 166.563 190.411 163.781L188.606 161.385C184.897 164.179 181.214 167.013 177.562 169.887L179.417 172.245ZM201.578 155.545C205.33 152.836 209.106 150.167 212.905 147.536L211.197 145.07C207.382 147.711 203.59 150.393 199.822 153.113L201.578 155.545ZM224.393 139.74C228.246 137.179 232.119 134.656 236.01 132.171L234.395 129.643C230.489 132.137 226.6 134.67 222.732 137.242L224.393 139.74ZM247.785 124.799C251.733 122.377 255.696 119.993 259.672 117.647L258.148 115.063C254.157 117.417 250.179 119.811 246.216 122.243L247.785 124.799ZM271.689 110.693C275.724 108.404 279.769 106.153 283.822 103.94L282.385 101.307C278.318 103.527 274.258 105.786 270.209 108.084L271.689 110.693ZM296.046 97.3948C300.162 95.2332 304.282 93.1106 308.406 91.0267L307.053 88.3492C302.915 90.4401 298.781 92.5699 294.651 94.7389L296.046 97.3948ZM320.824 84.8701C325.008 82.8354 329.191 80.8401 333.372 78.884L332.101 76.1667C327.907 78.1291 323.709 80.1308 319.512 82.1722L320.824 84.8701ZM345.992 73.0932C350.226 71.1876 354.455 69.322 358.674 67.4959L357.483 64.7426C353.25 66.5744 349.008 68.4458 344.76 70.3574L345.992 73.0932ZM371.486 62.0606C375.776 60.2766 380.055 58.5335 384.317 56.831L383.205 54.045C378.929 55.7527 374.638 57.5011 370.334 59.2906L371.486 62.0606ZM397.263 51.7656C401.622 50.095 405.962 48.467 410.279 46.8813L409.245 44.0653C404.915 45.6558 400.562 47.2886 396.189 48.9643L397.263 51.7656ZM423.294 42.2025C427.716 40.6473 432.109 39.1369 436.471 37.671L435.515 34.8274C431.141 36.2976 426.734 37.8125 422.298 39.3725L423.294 42.2025ZM449.674 33.3362C454.112 31.9135 458.512 30.5379 462.869 29.2088L461.994 26.3394C457.623 27.6726 453.21 29.0524 448.758 30.4794L449.674 33.3362ZM476.22 25.2413C480.739 23.934 485.206 22.6783 489.614 21.4737L488.824 18.5798C484.4 19.7883 479.92 21.048 475.386 22.3595L476.22 25.2413ZM503.01 17.923C507.549 16.7574 512.016 15.6485 516.408 14.5954L515.708 11.6781C511.301 12.735 506.818 13.8478 502.264 15.0173L503.01 17.923ZM529.998 11.458C534.638 10.4291 539.179 9.46672 543.612 8.56987L543.017 5.62944C538.565 6.53006 534.007 7.4963 529.349 8.52912L529.998 11.458ZM557.254 5.95206C559.523 5.54131 561.758 5.14942 563.957 4.77621L563.455 1.81849C561.245 2.19357 558.999 2.58738 556.72 3.00006L557.254 5.95206ZM9.05461 411.154L33.9353 387.051L0.621236 377.555L9.05461 411.154ZM13.8486 405.279L14.6966 402.401L8.94128 400.705L8.09331 403.583L13.8486 405.279ZM12.2869 390.226L11.3379 393.072L17.0298 394.97L17.9788 392.124L12.2869 390.226ZM22.5764 379.105L23.6249 376.294L18.0034 374.197L16.9548 377.008L22.5764 379.105ZM22.071 363.992L20.925 366.765L26.47 369.057L27.616 366.284L22.071 363.992ZM33.1154 353.607L34.3567 350.876L28.8944 348.393L27.6531 351.124L33.1154 353.607ZM33.6559 338.494L32.3223 341.181L37.6968 343.849L39.0304 341.161L33.6559 338.494ZM45.3811 328.889L46.8044 326.248L41.5226 323.402L40.0993 326.043L45.3811 328.889ZM46.941 313.835L45.4315 316.428L50.6166 319.447L52.1261 316.854L46.941 313.835ZM59.267 305.035L60.8594 302.492L55.7745 299.307L54.1821 301.85L59.267 305.035ZM61.7983 290.107L60.1266 292.598L65.1086 295.941L66.7804 293.45L61.7983 290.107ZM74.6515 282.104L76.399 279.666L71.522 276.171L69.7745 278.609L74.6515 282.104ZM78.0964 267.357L76.2768 269.743L81.0471 273.382L82.8667 270.997L78.0964 267.357ZM91.4052 260.137L93.2933 257.806L88.6307 254.029L86.7426 256.361L91.4052 260.137ZM95.7005 245.615L93.7474 247.892L98.3017 251.799L100.255 249.522L95.7005 245.615ZM109.396 239.155L111.411 236.932L106.965 232.903L104.951 235.126L109.396 239.155ZM114.478 224.89L112.405 227.059L116.743 231.204L118.816 229.035L114.478 224.89ZM128.497 219.163L130.624 217.047L126.394 212.792L124.267 214.907L128.497 219.163ZM134.302 205.176L132.123 207.238L136.246 211.596L138.426 209.535L134.302 205.176ZM148.588 200.15L150.816 198.141L146.798 193.685L144.57 195.694L148.588 200.15ZM155.056 186.457L152.782 188.414L156.696 192.962L158.97 191.005L155.056 186.457ZM169.56 182.097L171.877 180.191L168.066 175.557L165.749 177.463L169.56 182.097ZM176.634 168.708L174.276 170.563L177.986 175.278L180.344 173.423L176.634 168.708ZM191.313 164.979L193.709 163.174L190.099 158.382L187.703 160.187L191.313 164.979ZM198.944 151.897L196.512 153.653L200.024 158.518L202.456 156.761L198.944 151.897ZM213.759 148.769L216.225 147.061L212.809 142.128L210.343 143.836L213.759 148.769ZM221.901 135.993L219.403 137.654L222.725 142.651L225.223 140.99L221.901 135.993ZM236.817 133.435L239.345 131.821L236.116 126.764L233.588 128.378L236.817 133.435ZM245.431 120.964L242.874 122.533L246.013 127.647L248.57 126.078L245.431 120.964ZM260.434 118.939L263.018 117.414L259.969 112.247L257.385 113.771L260.434 118.939ZM269.469 106.779L266.859 108.26L269.821 113.478L272.43 111.998L269.469 106.779ZM284.541 105.257L287.174 103.82L284.3 98.5531L281.666 99.9906L284.541 105.257ZM293.954 93.411L291.298 94.806L294.088 100.118L296.744 98.7228L293.954 93.411ZM309.082 92.3654L311.76 91.0122L309.054 85.6573L306.376 87.0104L309.082 92.3654ZM318.856 80.8232L316.158 82.1353L318.782 87.531L321.48 86.219L318.856 80.8232ZM334.008 80.2427L336.725 78.9713L334.183 73.5367L331.465 74.8081L334.008 80.2427ZM344.145 68.9895L341.409 70.2207L343.871 75.6922L346.607 74.461L344.145 68.9895ZM359.27 68.8725L362.023 67.6811L359.641 62.1745L356.887 63.366L359.27 68.8725ZM369.758 57.9055L366.988 59.0574L369.292 64.5975L372.062 63.4457L369.758 57.9055ZM384.874 58.224L387.66 57.1113L385.434 51.5392L382.648 52.652L384.874 58.224ZM395.653 47.5636L392.851 48.6372L394.998 54.2399L397.8 53.1663L395.653 47.5636ZM410.796 48.2893L413.612 47.2549L411.543 41.6229L408.727 42.6573L410.796 48.2893ZM421.801 37.9574L418.971 38.9528L420.961 44.6129L423.791 43.6176L421.801 37.9574ZM436.949 39.0929L439.793 38.1372L437.881 32.4498L435.037 33.4055L436.949 39.0929ZM448.301 29.051L445.444 29.9667L447.275 35.6804L450.132 34.7646L448.301 29.051ZM463.307 30.6436L466.176 29.7683L464.425 24.0293L461.556 24.9047L463.307 30.6436ZM474.969 20.9186L472.087 21.7522L473.755 27.5159L476.636 26.6823L474.969 20.9186ZM490.01 22.9207L492.904 22.13L491.322 16.3421L488.428 17.1328L490.01 22.9207ZM501.891 13.5644L498.985 14.3107L500.477 20.1221L503.383 19.3759L501.891 13.5644ZM516.757 16.054L519.675 15.3544L518.276 9.51982L515.358 10.2194L516.757 16.054ZM529.024 7.06469L526.095 7.71407L527.394 13.5718L530.323 12.9224L529.024 7.06469ZM543.909 10.0401L546.85 9.44514L545.66 3.56432L542.719 4.15924L543.909 10.0401ZM556.453 1.52405L553.501 2.05856L554.57 7.96257L557.522 7.42807L556.453 1.52405ZM17.9788 392.124C19.4399 387.742 20.9732 383.402 22.5764 379.105L16.9548 377.008C15.3272 381.371 13.7704 385.777 12.2869 390.226L17.9788 392.124ZM27.616 366.284C29.3803 362.016 31.2142 357.79 33.1154 353.607L27.6531 351.124C25.7234 355.37 23.862 359.659 22.071 363.992L27.616 366.284ZM39.0304 341.161C41.0819 337.028 43.1995 332.937 45.3811 328.889L40.0993 326.043C37.8862 330.149 35.7376 334.3 33.6559 338.494L39.0304 341.161ZM52.1261 316.854C54.445 312.872 56.826 308.932 59.267 305.035L54.1821 301.85C51.7072 305.801 49.2927 309.796 46.941 313.835L52.1261 316.854ZM66.7804 293.45C69.3469 289.626 71.9714 285.844 74.6515 282.104L69.7745 278.609C67.0591 282.398 64.3996 286.231 61.7983 290.107L66.7804 293.45ZM82.8667 270.997C85.6603 267.335 88.5072 263.715 91.4052 260.137L86.7426 256.361C83.8086 259.983 80.9257 263.649 78.0964 267.357L82.8667 270.997ZM100.255 249.522C103.254 246.025 106.302 242.569 109.396 239.155L104.951 235.126C101.82 238.58 98.7359 242.076 95.7005 245.615L100.255 249.522ZM118.816 229.035C122 225.704 125.227 222.413 128.497 219.163L124.267 214.907C120.961 218.193 117.698 221.521 114.478 224.89L118.816 229.035ZM138.426 209.535C141.775 206.366 145.163 203.238 148.588 200.15L144.57 195.694C141.11 198.813 137.687 201.974 134.302 205.176L138.426 209.535ZM158.97 191.005C162.466 187.996 165.997 185.027 169.56 182.097L165.749 177.463C162.152 180.42 158.587 183.419 155.056 186.457L158.97 191.005ZM180.344 173.423C183.972 170.57 187.629 167.755 191.313 164.979L187.703 160.187C183.986 162.987 180.295 165.828 176.634 168.708L180.344 173.423ZM202.456 156.761C206.2 154.058 209.968 151.394 213.759 148.769L210.343 143.836C206.52 146.484 202.72 149.171 198.944 151.897L202.456 156.761ZM225.223 140.99C229.068 138.433 232.934 135.915 236.817 133.435L233.588 128.378C229.674 130.878 225.778 133.416 221.901 135.993L225.223 140.99ZM248.57 126.078C252.51 123.66 256.466 121.28 260.434 118.939L257.385 113.771C253.387 116.13 249.402 118.527 245.431 120.964L248.57 126.078ZM272.43 111.998C276.457 109.712 280.495 107.466 284.541 105.257L281.666 99.9906C277.592 102.215 273.525 104.477 269.469 106.779L272.43 111.998ZM296.744 98.7228C300.852 96.5649 304.966 94.4459 309.082 92.3654L306.376 87.0104C302.232 89.1048 298.09 91.2382 293.954 93.411L296.744 98.7228ZM321.48 86.219C325.657 84.1877 329.834 82.1957 334.008 80.2427L331.465 74.8081C327.264 76.7736 323.06 78.7786 318.856 80.8232L321.48 86.219ZM346.607 74.461C350.835 72.5585 355.057 70.6958 359.27 68.8725L356.887 63.366C352.648 65.2006 348.399 67.075 344.145 68.9895L346.607 74.461ZM372.062 63.4457C376.346 61.6644 380.617 59.924 384.874 58.224L382.648 52.652C378.366 54.3623 374.068 56.1133 369.758 57.9055L372.062 63.4457ZM397.8 53.1663C402.153 51.4982 406.486 49.8727 410.796 48.2893L408.727 42.6573C404.391 44.2501 400.032 45.8854 395.653 47.5636L397.8 53.1663ZM423.791 43.6176C428.207 42.0646 432.594 40.5566 436.949 39.0929L435.037 33.4055C430.656 34.878 426.243 36.3952 421.801 37.9574L423.791 43.6176ZM450.132 34.7646C454.563 33.3441 458.956 31.9706 463.307 30.6436L461.556 24.9047C457.179 26.2399 452.759 27.6218 448.301 29.051L450.132 34.7646ZM476.636 26.6823C481.149 25.377 485.608 24.1233 490.01 22.9207L488.428 17.1328C483.998 18.3433 479.51 19.605 474.969 20.9186L476.636 26.6823ZM503.383 19.3759C507.914 18.2123 512.374 17.1053 516.757 16.054L515.358 10.2194C510.943 11.2782 506.452 12.393 501.891 13.5644L503.383 19.3759ZM530.323 12.9224C534.954 11.8955 539.486 10.9351 543.909 10.0401L542.719 4.15924C538.259 5.06173 533.691 6.0299 529.024 7.06469L530.323 12.9224ZM557.522 7.42807C559.785 7.01828 562.014 6.62732 564.208 6.25507L563.204 0.339635C560.988 0.715645 558.737 1.11041 556.453 1.52405L557.522 7.42807Z" fill="#312E3A"/>
</svg>
