<svg width="613" height="339" viewBox="0 0 613 339" fill="none" xmlns="http://www.w3.org/2000/svg">
<path d="M612.949 321.484L597.76 329.81L598.144 312.493L612.949 321.484ZM7.36741 7.71926L8.00366 9.07764L5.28692 10.3502L4.65066 8.99178L7.36741 7.71926ZM10.7886 21.5156L10.1048 20.1805L12.775 18.813L13.4588 20.148L10.7886 21.5156ZM19.9933 32.3707L20.7236 33.6808L18.1033 35.1416L17.3729 33.8314L19.9933 32.3707ZM24.3684 45.8806L23.5928 44.5967L26.1606 43.0454L26.9362 44.3293L24.3684 45.8806ZM34.3133 56.0754L35.1329 57.3317L32.6203 58.9709L31.8007 57.7146L34.3133 56.0754ZM39.6122 69.2521L38.7502 68.0244L41.2055 66.3005L42.0674 67.5281L39.6122 69.2521ZM50.227 78.7421L51.1298 79.9401L48.7339 81.7456L47.8311 80.5476L50.227 78.7421ZM56.4062 91.5436L55.4645 90.3761L57.7996 88.4927L58.7413 89.6602L56.4062 91.5436ZM67.6151 100.304L68.5941 101.441L66.321 103.399L65.3421 102.262L67.6151 100.304ZM74.6118 112.686L73.5975 111.581L75.8078 109.552L76.822 110.658L74.6118 112.686ZM86.3469 120.719L87.3946 121.793L85.2478 123.888L84.2001 122.815L86.3469 120.719ZM94.0928 132.65L93.0135 131.609L95.0967 129.45L96.1761 130.492L94.0928 132.65ZM106.287 139.968L107.397 140.978L105.377 143.196L104.268 142.186L106.287 139.968ZM114.713 151.429L113.576 150.451L115.532 148.176L116.669 149.155L114.713 151.429ZM127.302 158.049L128.466 158.996L126.572 161.323L125.409 160.376L127.302 158.049ZM136.34 169.032L135.152 168.117L136.983 165.741L138.172 166.656L136.34 169.032ZM149.262 174.978L150.474 175.863L148.704 178.285L147.493 177.4L149.262 174.978ZM158.852 185.484L157.619 184.63L159.328 182.164L160.561 183.019L158.852 185.484ZM172.053 190.783L173.305 191.608L171.656 194.114L170.403 193.289L172.053 190.783ZM182.133 200.818L180.862 200.022L182.453 197.479L183.725 198.275L182.133 200.818ZM195.567 205.5L196.856 206.267L195.322 208.846L194.033 208.079L195.567 205.5ZM206.087 215.074L204.781 214.335L206.259 211.725L207.564 212.464L206.087 215.074ZM219.71 219.171L221.03 219.882L219.607 222.523L218.287 221.812L219.71 219.171ZM230.623 228.297L229.289 227.612L230.658 224.943L231.992 225.627L230.623 228.297ZM244.398 231.836L245.746 232.494L244.429 235.19L243.081 234.532L244.398 231.836ZM255.666 240.529L254.305 239.896L255.57 237.176L256.93 237.808L255.666 240.529ZM269.557 243.538L270.928 244.145L269.714 246.888L268.342 246.281L269.557 243.538ZM281.145 251.812L279.762 251.23L280.928 248.465L282.31 249.048L281.145 251.812ZM295.14 254.325L296.532 254.884L295.415 257.668L294.023 257.109L295.14 254.325ZM306.999 262.188L305.598 261.653L306.668 258.851L308.069 259.385L306.999 262.188ZM321.082 264.23L322.492 264.742L321.469 267.562L320.059 267.05L321.082 264.23ZM333.176 271.692L331.758 271.203L332.736 268.367L334.154 268.856L333.176 271.692ZM347.333 273.286L348.759 273.753L347.825 276.604L346.4 276.137L347.333 273.286ZM359.648 280.363L358.216 279.918L359.105 277.053L360.538 277.498L359.648 280.363ZM373.846 281.522L375.285 281.945L374.438 284.823L372.999 284.4L373.846 281.522ZM386.391 288.232L384.946 287.83L385.75 284.94L387.195 285.342L386.391 288.232ZM400.577 288.962L402.028 289.343L401.266 292.244L399.815 291.863L400.577 288.962ZM413.342 295.313L411.886 294.953L412.606 292.041L414.062 292.401L413.342 295.313ZM427.536 295.635L428.997 295.974L428.317 298.896L426.856 298.557L427.536 295.635ZM440.459 301.62L438.993 301.3L439.632 298.369L441.098 298.688L440.459 301.62ZM454.702 301.553L456.171 301.851L455.574 304.791L454.104 304.492L454.702 301.553ZM467.716 307.162L466.242 306.883L466.799 303.935L468.273 304.214L467.716 307.162ZM481.983 306.705L483.461 306.963L482.945 309.918L481.468 309.66L481.983 306.705ZM495.216 311.96L493.734 311.723L494.209 308.76L495.69 308.998L495.216 311.96ZM509.356 311.086L510.84 311.303L510.408 314.271L508.924 314.055L509.356 311.086ZM522.763 315.969L521.276 315.774L521.665 312.799L523.153 312.994L522.763 315.969ZM536.962 314.697L538.453 314.869L538.108 317.85L536.617 317.677L536.962 314.697ZM550.441 319.171L548.949 319.021L549.248 316.036L550.741 316.186L550.441 319.171ZM564.487 317.453L565.982 317.579L565.73 320.568L564.236 320.443L564.487 317.453ZM578.195 321.497L576.698 321.397L576.898 318.404L578.395 318.504L578.195 321.497ZM592.289 319.305L593.787 319.377L593.643 322.373L592.144 322.301L592.289 319.305ZM606.087 322.832L604.588 322.791L604.671 319.792L606.17 319.834L606.087 322.832ZM4.46951 1.38656C5.4188 3.51069 6.38485 5.62156 7.36741 7.71926L4.65066 8.99178C3.66058 6.87801 2.68714 4.75098 1.73059 2.61061L4.46951 1.38656ZM13.4588 20.148C15.5725 24.2751 17.7514 28.3491 19.9933 32.3707L17.3729 33.8314C15.114 29.7792 12.9185 25.6742 10.7886 21.5156L13.4588 20.148ZM26.9362 44.3293C29.3334 48.2976 31.7932 52.2127 34.3133 56.0754L31.8007 57.7146C29.2619 53.8232 26.7837 49.8787 24.3684 45.8806L26.9362 44.3293ZM42.0674 67.5281C44.7289 71.3187 47.4495 75.0565 50.227 78.7421L47.8311 80.5476C45.0336 76.8354 42.2932 73.0704 39.6122 69.2521L42.0674 67.5281ZM58.7413 89.6602C61.6448 93.26 64.6035 96.8078 67.6151 100.304L65.3421 102.262C62.3097 98.7415 59.3303 95.1689 56.4062 91.5436L58.7413 89.6602ZM76.822 110.658C79.9468 114.062 83.1226 117.416 86.3469 120.719L84.2001 122.815C80.9546 119.49 77.7577 116.114 74.6118 112.686L76.822 110.658ZM96.1761 130.492C99.5008 133.7 102.872 136.859 106.287 139.968L104.268 142.186C100.831 139.058 97.4388 135.879 94.0928 132.65L96.1761 130.492ZM116.669 149.155C120.172 152.168 123.717 155.133 127.302 158.049L125.409 160.376C121.803 157.443 118.237 154.46 114.713 151.429L116.669 149.155ZM138.172 166.656C141.832 169.477 145.53 172.251 149.262 174.978L147.493 177.4C143.74 174.658 140.021 171.869 136.34 169.032L138.172 166.656ZM160.561 183.019C164.36 185.653 168.191 188.241 172.053 190.783L170.403 193.289C166.522 190.733 162.67 188.132 158.852 185.484L160.561 183.019ZM183.725 198.275C187.645 200.728 191.593 203.136 195.567 205.5L194.033 208.079C190.04 205.703 186.073 203.283 182.133 200.818L183.725 198.275ZM207.564 212.464C211.59 214.743 215.64 216.978 219.71 219.171L218.287 221.812C214.199 219.609 210.131 217.364 206.087 215.074L207.564 212.464ZM231.992 225.627C236.11 227.739 240.246 229.808 244.398 231.836L243.081 234.532C238.912 232.495 234.758 230.417 230.623 228.297L231.992 225.627ZM256.93 237.808C261.126 239.759 265.336 241.669 269.557 243.538L268.342 246.281C264.105 244.405 259.878 242.487 255.666 240.529L256.93 237.808ZM282.31 249.048C286.578 250.847 290.856 252.606 295.14 254.325L294.023 257.109C289.723 255.384 285.429 253.619 281.145 251.812L282.31 249.048ZM308.069 259.385C312.403 261.04 316.742 262.654 321.082 264.23L320.059 267.05C315.703 265.469 311.349 263.849 306.999 262.188L308.069 259.385ZM334.154 268.856C338.549 270.372 342.942 271.848 347.333 273.286L346.4 276.137C341.994 274.694 337.585 273.213 333.176 271.692L334.154 268.856ZM360.538 277.498C364.981 278.878 369.418 280.219 373.846 281.522L372.999 284.4C368.557 283.093 364.106 281.748 359.648 280.363L360.538 277.498ZM387.195 285.342C391.668 286.587 396.13 287.793 400.577 288.962L399.815 291.863C395.354 290.691 390.878 289.481 386.391 288.232L387.195 285.342ZM414.062 292.401C418.573 293.517 423.065 294.595 427.536 295.635L426.856 298.557C422.372 297.514 417.866 296.433 413.342 295.313L414.062 292.401ZM441.098 298.688C445.659 299.682 450.195 300.636 454.702 301.553L454.104 304.492C449.584 303.574 445.034 302.616 440.459 301.62L441.098 298.688ZM468.273 304.214C472.879 305.084 477.451 305.914 481.983 306.705L481.468 309.66C476.921 308.867 472.336 308.034 467.716 307.162L468.273 304.214ZM495.69 308.998C500.292 309.734 504.848 310.43 509.356 311.086L508.924 314.055C504.402 313.397 499.832 312.699 495.216 311.96L495.69 308.998ZM523.153 312.994C527.818 313.604 532.422 314.171 536.962 314.697L536.617 317.677C532.063 317.15 527.443 316.581 522.763 315.969L523.153 312.994ZM550.741 316.186C555.403 316.653 559.987 317.075 564.487 317.453L564.236 320.443C559.72 320.063 555.12 319.64 550.441 319.171L550.741 316.186ZM578.395 318.504C583.138 318.821 587.771 319.087 592.289 319.305L592.144 322.301C587.608 322.082 582.956 321.815 578.195 321.497L578.395 318.504ZM612.949 321.484L582.572 338.135L583.34 303.503L612.949 321.484ZM8.72578 7.083L9.9983 9.79974L4.5648 12.3448L3.29229 9.62803L8.72578 7.083ZM9.45355 22.1994L8.08597 19.5293L13.4263 16.7941L14.7939 19.4643L9.45355 22.1994ZM21.3034 31.6403L22.7642 34.2607L17.5234 37.1821L16.0627 34.5618L21.3034 31.6403ZM23.0845 46.6562L21.5332 44.0884L26.6689 40.9859L28.2201 43.5537L23.0845 46.6562ZM35.5695 55.2558L37.2088 57.7683L32.1837 61.0468L30.5444 58.5342L35.5695 55.2558ZM38.3846 70.114L36.6607 67.6588L41.5711 64.211L43.295 66.6662L38.3846 70.114ZM51.4249 77.8394L53.2304 80.2353L48.4387 83.8463L46.6332 81.4504L51.4249 77.8394ZM55.2387 92.4854L53.3552 90.1503L58.0254 86.3834L59.9088 88.7185L55.2387 92.4854ZM68.7517 99.3253L70.7095 101.598L66.1634 105.514L64.2055 103.241L68.7517 99.3253ZM73.5067 113.7L71.4782 111.49L75.8986 107.433L77.9271 109.643L73.5067 113.7ZM87.4204 119.672L89.5158 121.819L85.2221 126.009L83.1266 123.863L87.4204 119.672ZM93.0512 133.73L90.8925 131.646L95.059 127.329L97.2177 129.412L93.0512 133.73ZM107.297 138.859L109.516 140.879L105.476 145.315L103.258 143.296L107.297 138.859ZM113.735 152.566L111.46 150.61L115.373 146.061L117.647 148.017L113.735 152.566ZM128.249 156.886L130.576 158.779L126.789 163.433L124.462 161.54L128.249 156.886ZM135.425 170.221L133.048 168.389L136.711 163.637L139.087 165.468L135.425 170.221ZM150.147 173.767L152.57 175.537L149.03 180.381L146.608 178.612L150.147 173.767ZM157.997 186.717L155.531 185.008L158.95 180.077L161.415 181.786L157.997 186.717ZM172.877 189.53L175.383 191.18L172.084 196.191L169.578 194.542L172.877 189.53ZM181.338 202.09L178.795 200.498L181.977 195.412L184.52 197.003L181.338 202.09ZM196.334 204.211L198.912 205.745L195.844 210.902L193.266 209.368L196.334 204.211ZM205.348 216.38L202.737 214.902L205.693 209.68L208.303 211.158L205.348 216.38ZM220.421 217.85L223.062 219.273L220.217 224.555L217.576 223.132L220.421 217.85ZM229.939 229.631L227.269 228.262L230.007 222.923L232.677 224.292L229.939 229.631ZM245.056 230.488L247.752 231.804L245.119 237.196L242.423 235.879L245.056 230.488ZM255.033 241.889L252.313 240.624L254.843 235.183L257.563 236.448L255.033 241.889ZM270.164 242.166L272.907 243.381L270.478 248.867L267.735 247.653L270.164 242.166ZM280.562 253.195L277.797 252.029L280.128 246.501L282.892 247.666L280.562 253.195ZM295.699 252.933L298.483 254.05L296.249 259.619L293.465 258.501L295.699 252.933ZM306.464 263.59L303.662 262.52L305.801 256.914L308.604 257.984L306.464 263.59ZM321.594 262.82L324.414 263.844L322.367 269.484L319.547 268.46L321.594 262.82ZM332.687 273.11L329.851 272.132L331.807 266.46L334.643 267.438L332.687 273.11ZM347.8 271.861L350.651 272.794L348.784 278.496L345.933 277.563L347.8 271.861ZM359.203 281.796L356.338 280.906L358.118 275.176L360.983 276.066L359.203 281.796ZM374.269 280.083L377.148 280.93L375.454 286.686L372.576 285.839L374.269 280.083ZM385.989 289.678L383.098 288.873L384.707 283.093L387.597 283.897L385.989 289.678ZM400.958 287.511L403.86 288.273L402.335 294.076L399.434 293.314L400.958 287.511ZM412.981 296.769L410.069 296.049L411.511 290.224L414.423 290.945L412.981 296.769ZM427.876 294.174L430.798 294.853L429.439 300.697L426.517 300.018L427.876 294.174ZM440.14 303.085L437.208 302.447L438.485 296.584L441.417 297.223L440.14 303.085ZM455 300.083L457.94 300.68L456.745 306.56L453.805 305.962L455 300.083ZM467.438 308.636L464.49 308.079L465.604 302.183L468.552 302.74L467.438 308.636ZM482.241 305.227L485.197 305.743L484.165 311.654L481.21 311.138L482.241 305.227ZM494.978 313.441L492.016 312.967L492.964 307.042L495.927 307.516L494.978 313.441ZM509.572 309.602L512.541 310.034L511.676 315.972L508.708 315.54L509.572 309.602ZM522.569 317.456L519.594 317.067L520.373 311.117L523.347 311.507L522.569 317.456ZM537.135 313.207L540.115 313.552L539.425 319.512L536.445 319.167L537.135 313.207ZM550.292 320.663L547.307 320.364L547.905 314.394L550.89 314.693L550.292 320.663ZM564.613 315.959L567.602 316.21L567.099 322.189L564.11 321.937L564.613 315.959ZM578.095 322.994L575.102 322.794L575.502 316.807L578.495 317.007L578.095 322.994ZM592.361 317.806L595.357 317.951L595.069 323.944L592.072 323.799L592.361 317.806ZM606.046 324.332L603.047 324.249L603.213 318.251L606.212 318.334L606.046 324.332ZM5.83898 0.774539C6.78463 2.89053 7.74698 4.99333 8.72578 7.083L3.29229 9.62803C2.29845 7.50625 1.32131 5.37113 0.361126 3.22263L5.83898 0.774539ZM14.7939 19.4643C16.8995 23.5755 19.0701 27.634 21.3034 31.6403L16.0627 34.5618C13.7953 30.4943 11.5915 26.3737 9.45355 22.1994L14.7939 19.4643ZM28.2201 43.5537C30.6083 47.507 33.0589 51.4075 35.5695 55.2558L30.5444 58.5342C27.9962 54.6284 25.5088 50.6693 23.0845 46.6562L28.2201 43.5537ZM43.295 66.6662C45.9467 70.4428 48.6575 74.167 51.4249 77.8394L46.6332 81.4504C43.8257 77.7248 41.0754 73.9463 38.3846 70.114L43.295 66.6662ZM59.9088 88.7185C62.8021 92.3055 65.7505 95.8409 68.7517 99.3253L64.2055 103.241C61.1627 99.7083 58.173 96.1233 55.2387 92.4854L59.9088 88.7185ZM77.9271 109.643C81.0414 113.037 84.2066 116.379 87.4204 119.672L83.1266 123.863C79.8705 120.527 76.6631 117.139 73.5067 113.7L77.9271 109.643ZM97.2177 129.412C100.532 132.61 103.892 135.759 107.297 138.859L103.258 143.296C99.8108 140.157 96.4078 136.969 93.0512 133.73L97.2177 129.412ZM117.647 148.017C121.14 151.022 124.675 153.978 128.249 156.886L124.462 161.54C120.846 158.598 117.27 155.607 113.735 152.566L117.647 148.017ZM139.087 165.468C142.737 168.281 146.425 171.047 150.147 173.767L146.608 178.612C142.845 175.862 139.116 173.065 135.425 170.221L139.087 165.468ZM161.415 181.786C165.204 184.413 169.026 186.994 172.877 189.53L169.578 194.542C165.687 191.98 161.826 189.372 157.997 186.717L161.415 181.786ZM184.52 197.003C188.431 199.45 192.369 201.853 196.334 204.211L193.266 209.368C189.264 206.987 185.287 204.561 181.338 202.09L184.52 197.003ZM208.303 211.158C212.32 213.432 216.36 215.662 220.421 217.85L217.576 223.132C213.478 220.925 209.402 218.674 205.348 216.38L208.303 211.158ZM232.677 224.292C236.785 226.4 240.913 228.464 245.056 230.488L242.423 235.879C238.245 233.839 234.083 231.757 229.939 229.631L232.677 224.292ZM257.563 236.448C261.75 238.395 265.951 240.301 270.164 242.166L267.735 247.653C263.489 245.773 259.254 243.851 255.033 241.889L257.563 236.448ZM282.892 247.666C287.153 249.462 291.422 251.217 295.699 252.933L293.465 258.501C289.156 256.773 284.855 255.004 280.562 253.195L282.892 247.666ZM308.604 257.984C312.93 259.636 317.261 261.247 321.594 262.82L319.547 268.46C315.184 266.876 310.822 265.253 306.464 263.59L308.604 257.984ZM334.643 267.438C339.03 268.951 343.417 270.425 347.8 271.861L345.933 277.563C341.52 276.118 337.104 274.634 332.687 273.11L334.643 267.438ZM360.983 276.066C365.419 277.443 369.848 278.782 374.269 280.083L372.576 285.839C368.126 284.53 363.668 283.182 359.203 281.796L360.983 276.066ZM387.597 283.897C392.063 285.14 396.518 286.344 400.958 287.511L399.434 293.314C394.966 292.14 390.483 290.928 385.989 289.678L387.597 283.897ZM414.423 290.945C418.926 292.06 423.411 293.135 427.876 294.174L426.517 300.018C422.025 298.973 417.512 297.891 412.981 296.769L414.423 290.945ZM441.417 297.223C445.971 298.215 450.5 299.168 455 300.083L453.805 305.962C449.278 305.042 444.722 304.083 440.14 303.085L441.417 297.223ZM468.552 302.74C473.151 303.609 477.715 304.437 482.241 305.227L481.21 311.138C476.657 310.343 472.065 309.51 467.438 308.636L468.552 302.74ZM495.927 307.516C500.522 308.252 505.072 308.947 509.572 309.602L508.708 315.54C504.179 314.88 499.601 314.181 494.978 313.441L495.927 307.516ZM523.347 311.507C528.005 312.116 532.602 312.682 537.135 313.207L536.445 319.167C531.883 318.639 527.256 318.069 522.569 317.456L523.347 311.507ZM550.89 314.693C555.545 315.16 560.121 315.581 564.613 315.959L564.11 321.937C559.586 321.557 554.978 321.133 550.292 320.663L550.89 314.693ZM578.495 317.007C583.229 317.323 587.853 317.589 592.361 317.806L592.072 323.799C587.527 323.58 582.865 323.313 578.095 322.994L578.495 317.007Z" fill="#312E3A"/>
</svg>
