<svg width="396" height="343" viewBox="0 0 396 343" fill="none" xmlns="http://www.w3.org/2000/svg">
<rect y="0.244141" width="395.461" height="341.845" rx="10" fill="#EDE4E0"/>
<path d="M275.065 311.845L275.063 311.845L94.6211 289.621L94.6197 289.621C91.9444 289.299 89.5042 287.934 87.8298 285.823C86.1554 283.711 85.3822 281.025 85.6781 278.346L85.6783 278.345L104.843 99.3335C104.843 99.333 104.844 99.3324 104.844 99.3319C105.215 96.0731 106.655 93.0288 108.938 90.6741C111.221 88.3196 114.219 86.787 117.465 86.3154C117.466 86.3153 117.467 86.3151 117.467 86.315L304.225 61.0335L304.226 61.0333C305.793 60.8163 307.388 60.9618 308.889 61.4587C310.39 61.9555 311.757 62.7904 312.884 63.899C314.011 65.0076 314.869 66.3603 315.391 67.8527C315.913 69.3452 316.085 70.9375 315.895 72.5071L315.895 72.5074L288.167 301.872C288.167 301.873 288.167 301.875 288.167 301.877C287.728 304.924 286.109 307.678 283.659 309.542C281.208 311.408 278.121 312.236 275.065 311.845Z" fill="#63737A" stroke="#312E3A"/>
<path d="M88.5054 288.808L88.5035 288.808C85.8281 288.486 83.388 287.121 81.7136 285.01C80.0392 282.899 79.266 280.212 79.5619 277.534L79.5621 277.532L98.7272 98.521C98.7272 98.5205 98.7273 98.5199 98.7274 98.5194C99.0988 95.2606 100.538 92.2163 102.822 89.8616C105.105 87.5072 108.103 85.9746 111.349 85.5029C111.349 85.5028 111.35 85.5027 111.351 85.5026L298.109 60.221L298.11 60.2208C299.676 60.0038 301.271 60.1493 302.772 60.6462C304.273 61.143 305.64 61.9779 306.768 63.0865C307.895 64.1951 308.753 65.5478 309.275 67.0402C309.797 68.5327 309.969 70.1251 309.779 71.6947L309.779 71.6949L282.051 301.063C282.05 301.064 282.05 301.065 282.05 301.066C281.635 304.14 280.029 306.928 277.578 308.831C275.127 310.733 272.028 311.596 268.946 311.236C268.945 311.236 268.945 311.236 268.944 311.236L88.5054 288.808Z" fill="#22272E" stroke="#312E3A"/>
<path d="M120.837 151.995L120.837 151.995L120.823 151.996C120.333 152.034 119.84 151.963 119.381 151.787C118.921 151.611 118.507 151.334 118.168 150.978C117.828 150.622 117.573 150.195 117.419 149.727L116.945 149.883L117.419 149.727C117.266 149.26 117.218 148.764 117.28 148.276L117.28 148.276L117.281 148.268L120.747 116.665L120.747 116.665C120.832 115.892 121.178 115.171 121.727 114.621C122.277 114.072 122.996 113.726 123.768 113.641C123.769 113.641 123.77 113.641 123.771 113.641L266.284 99.5734L266.284 99.5734C266.803 99.5219 267.327 99.5894 267.817 99.7707C268.306 99.9521 268.747 100.242 269.108 100.62C269.468 100.997 269.737 101.452 269.896 101.949C270.054 102.446 270.097 102.973 270.022 103.489L270.022 103.489L270.02 103.501L265.331 142.24L265.327 142.27V142.3C265.327 142.822 265.024 143.407 264.434 143.907C263.852 144.398 263.035 144.766 262.119 144.86L120.837 151.995Z" fill="#2FA4A1" stroke="#312E3A"/>
<path d="M156.949 124.151L250.534 116.607" stroke="#312E3A" stroke-width="1.8" stroke-linecap="round" stroke-linejoin="round"/>
<path d="M155.727 136.185L206.087 132.719" stroke="#312E3A" stroke-width="1.8" stroke-linecap="round" stroke-linejoin="round"/>
<path d="M138.734 125.713C141.19 127.038 141.997 130.637 140.265 133.847C138.534 137.057 135.083 138.36 132.627 137.036C130.171 135.711 129.364 132.112 131.096 128.902C132.828 125.691 136.278 124.388 138.734 125.713Z" fill="#22272E" stroke="#312E3A"/>
<path d="M114.63 171.913L114.631 171.913L114.632 171.901C114.704 171.065 115.092 170.289 115.717 169.729C116.342 169.17 117.156 168.871 117.995 168.892L118.009 168.892L118.023 168.892L258.693 164.406C258.695 164.406 258.698 164.406 258.7 164.406C259.199 164.405 259.693 164.508 260.15 164.708C260.61 164.91 261.021 165.206 261.359 165.577L261.729 165.241L261.359 165.577C261.696 165.948 261.951 166.386 262.109 166.863C262.266 167.338 262.321 167.84 262.271 168.338C262.271 168.339 262.271 168.341 262.271 168.342L257.79 206.637C257.599 207.441 257.146 208.158 256.5 208.674C255.849 209.195 255.042 209.481 254.208 209.485C254.207 209.485 254.205 209.485 254.203 209.485L114.558 207.039C114.091 207.015 113.632 206.9 113.209 206.699C112.784 206.498 112.403 206.215 112.087 205.866C111.771 205.517 111.527 205.109 111.369 204.666C111.213 204.227 111.144 203.762 111.166 203.297L114.63 171.913Z" fill="#E7A5C8" stroke="#312E3A"/>
<path d="M150.63 181.653L243.196 180.43" stroke="#312E3A" stroke-width="1.8" stroke-linecap="round" stroke-linejoin="round"/>
<path d="M149.202 193.477H199.155" stroke="#312E3A" stroke-width="1.8" stroke-linecap="round" stroke-linejoin="round"/>
<path d="M132.53 182.252C134.928 183.411 135.833 186.921 134.238 190.222C132.643 193.522 129.331 194.994 126.933 193.836C124.535 192.677 123.63 189.167 125.225 185.866C126.82 182.566 130.132 181.094 132.53 182.252Z" fill="#22272E" stroke="#312E3A"/>
<path d="M108.718 226.765L108.718 226.765L108.719 226.756C108.8 225.891 109.217 225.091 109.879 224.528C110.541 223.965 111.398 223.683 112.265 223.742L112.273 223.743L112.281 223.743L251.329 228.84C251.33 228.84 251.33 228.84 251.331 228.84C251.816 228.862 252.292 228.983 252.73 229.195C253.168 229.408 253.558 229.707 253.876 230.076C254.194 230.444 254.434 230.874 254.58 231.338C254.726 231.801 254.777 232.288 254.728 232.771C254.728 232.773 254.728 232.774 254.728 232.776L250.247 270.661C250.043 271.493 249.561 272.23 248.88 272.749C248.194 273.272 247.349 273.541 246.488 273.512L108.474 261.689C108.473 261.688 108.472 261.688 108.471 261.688C107.555 261.597 106.71 261.156 106.11 260.457C105.513 259.76 105.207 258.861 105.254 257.945L108.718 226.765Z" fill="#FFC84D" stroke="#312E3A"/>
<path d="M144.311 238.742L235.653 243.636" stroke="#312E3A" stroke-width="1.8" stroke-linecap="round" stroke-linejoin="round"/>
<path d="M142.883 250.359L192.224 253.825" stroke="#312E3A" stroke-width="1.8" stroke-linecap="round" stroke-linejoin="round"/>
<path d="M126.288 236.852C128.735 237.9 129.799 241.365 128.355 244.735C126.912 248.105 123.67 249.726 121.222 248.677C118.774 247.628 117.711 244.163 119.154 240.793C120.598 237.424 123.84 235.803 126.288 236.852Z" fill="#22272E" stroke="#312E3A"/>
<path d="M40 248.625L116 306.625" stroke="#DE1029" stroke-width="8.91" stroke-linecap="round" stroke-linejoin="round"/>
<path d="M95 248.625L56 306.625" stroke="#DE1029" stroke-width="8.91" stroke-linecap="round" stroke-linejoin="round"/>
<path d="M356.209 47.2319C356.257 47.0569 356.362 46.9026 356.506 46.7926C356.651 46.6826 356.827 46.623 357.009 46.623C357.19 46.623 357.367 46.6826 357.512 46.7926C357.656 46.9026 357.761 47.0569 357.809 47.2319C358.164 48.6007 358.775 49.89 359.609 51.0319C360.762 51.8465 362.048 52.4554 363.409 52.8319C363.584 52.8803 363.738 52.9847 363.848 53.1292C363.958 53.2737 364.018 53.4503 364.018 53.6319C364.018 53.8135 363.958 53.9901 363.848 54.1346C363.738 54.2791 363.584 54.3835 363.409 54.4319C362.04 54.7871 360.751 55.3978 359.609 56.2319C358.794 57.3854 358.185 58.671 357.809 60.0319C357.761 60.2069 357.656 60.3613 357.512 60.4713C357.367 60.5812 357.19 60.6408 357.009 60.6408C356.827 60.6408 356.651 60.5812 356.506 60.4713C356.362 60.3613 356.257 60.2069 356.209 60.0319C355.854 58.6631 355.243 57.3739 354.409 56.2319C353.255 55.4174 351.97 54.8084 350.609 54.4319C350.434 54.3835 350.28 54.2791 350.17 54.1346C350.06 53.9901 350 53.8135 350 53.6319C350 53.4503 350.06 53.2737 350.17 53.1292C350.28 52.9847 350.434 52.8803 350.609 52.8319C351.978 52.4768 353.267 51.866 354.409 51.0319C355.204 49.867 355.811 48.5848 356.209 47.2319Z" fill="#FFC84D"/>
<path d="M48.6303 82.6655C48.7131 82.3659 48.892 82.1016 49.1394 81.9133C49.3868 81.7251 49.689 81.623 49.9999 81.623C50.3109 81.623 50.6132 81.7251 50.8606 81.9133C51.108 82.1016 51.2869 82.3659 51.3697 82.6655C51.9778 85.009 53.0234 87.2164 54.4515 89.1715C56.4264 90.5661 58.6274 91.6088 60.9575 92.2534C61.2572 92.3362 61.5214 92.515 61.7097 92.7624C61.898 93.0098 62 93.3121 62 93.623C62 93.934 61.898 94.2363 61.7097 94.4837C61.5214 94.7311 61.2572 94.9099 60.9575 94.9927C58.614 95.6008 56.4066 96.6465 54.4515 98.0746C53.0569 100.049 52.0143 102.25 51.3697 104.581C51.2869 104.88 51.108 105.144 50.8606 105.333C50.6132 105.521 50.3109 105.623 49.9999 105.623C49.689 105.623 49.3868 105.521 49.1394 105.333C48.892 105.144 48.7131 104.88 48.6303 104.581C48.0222 102.237 46.9766 100.03 45.5485 98.0746C43.5736 96.68 41.3726 95.6373 39.0425 94.9927C38.7428 94.9099 38.4786 94.7311 38.2903 94.4837C38.102 94.2363 38 93.934 38 93.623C38 93.3121 38.102 93.0098 38.2903 92.7624C38.4786 92.515 38.7428 92.3362 39.0425 92.2534C41.386 91.6453 43.5934 90.5996 45.5485 89.1715C46.9093 87.1771 47.9491 84.9819 48.6303 82.6655Z" fill="#FFC84D"/>
<path d="M279.416 16.4483C279.481 16.2111 279.623 16.0019 279.819 15.8528C280.015 15.7038 280.254 15.623 280.5 15.623C280.746 15.623 280.985 15.7038 281.181 15.8528C281.377 16.0019 281.519 16.2111 281.584 16.4483C282.066 18.3036 282.894 20.0512 284.024 21.599C285.588 22.703 287.33 23.5284 289.175 24.0387C289.412 24.1043 289.621 24.2459 289.77 24.4417C289.919 24.6376 290 24.8769 290 25.123C290 25.3692 289.919 25.6085 289.77 25.8044C289.621 26.0002 289.412 26.1418 289.175 26.2074C287.319 26.6888 285.572 27.5166 284.024 28.6471C282.92 30.2106 282.095 31.9531 281.584 33.7978C281.519 34.035 281.377 34.2442 281.181 34.3933C280.985 34.5423 280.746 34.623 280.5 34.623C280.254 34.623 280.015 34.5423 279.819 34.3933C279.623 34.2442 279.481 34.035 279.416 33.7978C278.934 31.9425 278.106 30.1949 276.976 28.6471C275.412 27.5431 273.67 26.7177 271.825 26.2074C271.588 26.1418 271.379 26.0002 271.23 25.8044C271.081 25.6085 271 25.3692 271 25.123C271 24.8769 271.081 24.6376 271.23 24.4417C271.379 24.2459 271.588 24.1043 271.825 24.0387C273.772 23.8448 275.592 22.9828 276.976 21.5992C278.36 20.2155 279.222 18.3955 279.416 16.4483Z" fill="#312E3A"/>
<path d="M351.464 118.061C351.505 117.934 351.585 117.823 351.692 117.744C351.8 117.665 351.93 117.623 352.064 117.623C352.197 117.623 352.327 117.665 352.435 117.744C352.543 117.823 352.623 117.934 352.664 118.061C352.911 119.039 353.353 119.957 353.964 120.761C354.779 121.351 355.694 121.791 356.664 122.061C356.797 122.096 356.914 122.173 356.998 122.282C357.082 122.39 357.128 122.524 357.128 122.661C357.128 122.798 357.082 122.932 356.998 123.04C356.914 123.149 356.797 123.226 356.664 123.261C355.686 123.508 354.767 123.951 353.964 124.561C353.374 125.377 352.933 126.291 352.664 127.261C352.623 127.388 352.543 127.499 352.435 127.578C352.327 127.656 352.197 127.699 352.064 127.699C351.93 127.699 351.8 127.656 351.692 127.578C351.585 127.499 351.505 127.388 351.464 127.261C351.216 126.283 350.774 125.364 350.164 124.561C349.348 123.971 348.434 123.531 347.464 123.261C347.331 123.226 347.213 123.149 347.129 123.04C347.046 122.932 347 122.798 347 122.661C347 122.524 347.046 122.39 347.129 122.282C347.213 122.173 347.331 122.096 347.464 122.061C348.485 121.945 349.436 121.487 350.163 120.76C350.89 120.033 351.348 119.082 351.464 118.061Z" fill="#312E3A"/>
<path d="M177.329 23.1821C177.627 22.4367 178.522 22.4367 178.671 23.1821C179.022 24.3356 179.523 25.4382 180.162 26.4616C181.116 27.2191 182.242 27.731 183.441 27.9522C184.186 28.2504 184.186 29.1448 183.441 29.2938C182.287 29.6453 181.185 30.1465 180.162 30.7845C179.404 31.7394 178.892 32.8654 178.671 34.064C178.373 34.8094 177.478 34.8094 177.329 34.064C176.978 32.9105 176.477 31.8079 175.839 30.7845C174.884 30.027 173.758 29.5151 172.559 29.2938C171.814 28.9957 171.814 28.1013 172.559 27.9522C173.713 27.6007 174.815 27.0996 175.839 26.4616C176.506 25.4541 177.009 24.3472 177.329 23.1821Z" fill="#FFC84D"/>
<path d="M96.4379 47.0868C96.4724 46.954 96.5501 46.8364 96.6587 46.7525C96.7673 46.6686 96.9007 46.623 97.0379 46.623C97.1751 46.623 97.3085 46.6686 97.4171 46.7525C97.5256 46.8364 97.6033 46.954 97.6379 47.0868C97.8854 48.065 98.3275 48.9833 98.9379 49.7868C99.7764 50.3377 100.684 50.7748 101.638 51.0868C101.765 51.1275 101.876 51.2076 101.955 51.3154C102.033 51.4233 102.076 51.5533 102.076 51.6868C102.076 51.8203 102.033 51.9504 101.955 52.0582C101.876 52.1661 101.765 52.2461 101.638 52.2868C100.66 52.5344 99.7414 52.9765 98.9379 53.5868C98.3477 54.4025 97.9075 55.3168 97.6379 56.2868C97.5972 56.414 97.5171 56.5249 97.4093 56.6036C97.3015 56.6823 97.1714 56.7247 97.0379 56.7247C96.9044 56.7247 96.7743 56.6823 96.6665 56.6036C96.5587 56.5249 96.4786 56.414 96.4379 56.2868C96.1903 55.3086 95.7482 54.3904 95.1379 53.5868C94.3222 52.9966 93.4079 52.5564 92.4379 52.2868C92.3107 52.2461 92.1998 52.1661 92.1211 52.0582C92.0424 51.9504 92 51.8203 92 51.6868C92 51.5533 92.0424 51.4233 92.1211 51.3154C92.1998 51.2076 92.3107 51.1275 92.4379 51.0868C93.4161 50.8393 94.3344 50.3972 95.1379 49.7868C95.7865 49.0073 96.233 48.08 96.4379 47.0868Z" fill="#312E3A"/>
</svg>
