<svg width="688" height="587" viewBox="0 0 688 587" fill="none" xmlns="http://www.w3.org/2000/svg">
<path d="M37.6165 495.989L631.689 586.09C634.827 586.576 638.031 586.404 641.098 585.585C644.166 584.766 647.03 583.318 649.509 581.332C651.988 579.347 654.029 576.867 655.501 574.051C656.972 571.234 657.844 568.142 658.06 564.971L693.581 29.2747C693.825 25.7898 693.318 22.2932 692.096 19.0211C690.873 15.7491 688.964 12.778 686.496 10.3085C684.028 7.83912 681.059 5.92897 677.791 4.70721C674.522 3.48544 671.029 2.98055 667.549 3.22665L72.4276 41.2487C66.9631 41.5789 61.7961 43.8523 57.8575 47.6592C53.9189 51.4662 51.4677 56.5564 50.9455 62.0127L16.8448 469.941C16.4668 476.088 18.3827 482.157 22.2208 486.97C26.0588 491.783 31.5455 494.997 37.6165 495.989Z" fill="#63737A"/>
<path d="M21.4449 495.277L618.342 585.751C621.477 586.229 624.677 586.05 627.74 585.227C630.803 584.403 633.661 582.952 636.135 580.966C638.609 578.979 640.644 576.5 642.112 573.685C643.579 570.871 644.448 567.782 644.662 564.614L680.556 26.4623C680.799 22.9322 680.283 19.391 679.044 16.0773C677.804 12.7636 675.87 9.75436 673.371 7.25231C670.872 4.75026 667.867 2.81353 664.557 1.57261C661.248 0.331683 657.711 -0.184607 654.185 0.0585219L56.6112 38.0806C51.0995 38.4365 45.8995 40.7661 41.9615 44.6437C38.0236 48.5214 35.6105 53.6882 35.163 59.2002L0.707031 468.89C0.0264893 475.131 1.81714 481.39 5.69446 486.323C9.57184 491.257 15.2267 494.471 21.4449 495.277Z" fill="#22272E"/>
<path d="M410.593 310.857L578.61 320.003C581.158 320.106 583.647 319.207 585.543 317.498C587.439 315.789 588.593 313.406 588.759 310.857L598.603 168.592C598.669 167.257 598.467 165.922 598.009 164.666C597.551 163.41 596.846 162.258 595.936 161.28C595.027 160.301 593.93 159.514 592.712 158.967C591.494 158.419 590.178 158.122 588.843 158.092L420.809 159.159C418.306 159.115 415.884 160.043 414.049 161.748C412.214 163.453 411.108 165.802 410.965 168.304L401.086 300.289C400.999 301.612 401.178 302.939 401.612 304.192C402.046 305.444 402.726 306.597 403.612 307.582C404.498 308.567 405.572 309.365 406.771 309.927C407.97 310.49 409.269 310.806 410.593 310.857Z" fill="#2FA4A1"/>
<path d="M229.906 255.951L370.52 260.88C373.072 260.982 375.562 260.081 377.459 258.369C379.356 256.656 380.508 254.269 380.669 251.717L386.657 169.712C386.73 168.365 386.531 167.017 386.071 165.75C385.611 164.482 384.9 163.321 383.98 162.336C383.061 161.35 381.952 160.561 380.72 160.015C379.488 159.47 378.159 159.179 376.813 159.16L236.198 160.21C233.726 160.272 231.362 161.236 229.549 162.92C227.736 164.604 226.6 166.892 226.353 169.356L220.416 245.332C220.293 246.664 220.445 248.007 220.863 249.277C221.282 250.547 221.958 251.717 222.848 252.714C223.739 253.71 224.825 254.512 226.04 255.069C227.254 255.627 228.57 255.927 229.906 255.951Z" fill="#FFC84D"/>
<path d="M70.6681 250.667L189.073 254.885C191.623 254.992 194.114 254.094 196.011 252.385C197.908 250.675 199.061 248.289 199.222 245.739L205.193 171.473C205.269 170.126 205.071 168.778 204.612 167.509C204.153 166.24 203.442 165.078 202.522 164.092C201.602 163.106 200.492 162.317 199.259 161.772C198.026 161.227 196.696 160.938 195.349 160.922L76.9436 161.616C74.4689 161.679 72.1024 162.645 70.2894 164.332C68.4763 166.019 67.3416 168.312 67.099 170.779L61.4832 240.099C61.353 241.405 61.491 242.724 61.8887 243.974C62.2863 245.224 62.9353 246.38 63.7957 247.37C64.656 248.36 65.7095 249.163 66.8913 249.73C68.0732 250.297 69.3585 250.616 70.6681 250.667Z" fill="#FFC84D"/>
<path d="M400.039 448.823L568.073 467.199C569.397 467.358 570.74 467.244 572.018 466.863C573.296 466.482 574.483 465.842 575.504 464.983C576.525 464.124 577.359 463.064 577.955 461.869C578.55 460.674 578.895 459.37 578.966 458.036L585.292 366.106C585.404 363.512 584.52 360.973 582.822 359.011C581.123 357.048 578.739 355.812 576.158 355.555L407.769 344.292C406.477 344.197 405.179 344.359 403.949 344.768C402.72 345.177 401.583 345.825 400.604 346.674C399.625 347.524 398.823 348.559 398.244 349.719C397.665 350.88 397.321 352.143 397.231 353.437L390.939 438.272C390.933 440.833 391.85 443.31 393.521 445.248C395.193 447.187 397.507 448.456 400.039 448.823V448.823Z" stroke="#63737A" stroke-width="3.74" stroke-linecap="round" stroke-linejoin="round"/>
<path d="M214.091 445.3L354.351 461.847C355.674 462.006 357.015 461.892 358.292 461.512C359.569 461.132 360.755 460.494 361.776 459.637C362.797 458.779 363.632 457.722 364.228 456.529C364.825 455.336 365.17 454.033 365.244 452.701L376.493 301.002C376.679 298.389 375.821 295.808 374.109 293.826C372.396 291.845 369.969 290.625 367.358 290.434L226.744 283.744C224.192 283.642 221.702 284.543 219.805 286.255C217.908 287.968 216.756 290.355 216.595 292.907L205.346 434.749C205.193 437.29 206.012 439.795 207.636 441.755C209.26 443.714 211.568 444.982 214.091 445.3Z" fill="#2FA4A1"/>
<path d="M56.612 410.46L175.017 423.484C176.342 423.646 177.686 423.533 178.965 423.153C180.244 422.773 181.432 422.133 182.453 421.274C183.475 420.414 184.309 419.353 184.904 418.157C185.499 416.961 185.841 415.655 185.91 414.321L195.4 292.193C195.586 289.581 194.728 287.002 193.015 285.023C191.302 283.045 188.874 281.828 186.266 281.642L67.8605 276.002C65.3088 275.9 62.8184 276.801 60.9218 278.513C59.0252 280.225 57.8729 282.613 57.7115 285.165L48.2222 399.891C48.0762 401.137 48.1778 402.4 48.521 403.607C48.8642 404.813 49.4423 405.94 50.222 406.922C51.0017 407.905 51.9677 408.723 53.0643 409.33C54.1609 409.937 55.3666 410.321 56.612 410.46Z" fill="#FFC84D"/>
<path d="M485.812 390.746L483.698 416.794" stroke="#63737A" stroke-width="3.74" stroke-linecap="round" stroke-linejoin="round"/>
<path d="M497.062 404.82L472.451 402.721" stroke="#63737A" stroke-width="3.74" stroke-linecap="round" stroke-linejoin="round"/>
<path d="M150.745 314.771C151.455 308.081 156.022 303.152 161.638 303.152C167.271 303.508 171.127 309.148 170.789 315.838C170.079 322.511 165.511 327.795 159.879 327.439C153.975 327.049 150.119 321.41 150.745 314.771Z" fill="#2FA4A1"/>
<path d="M132.882 313.667L76.2842 310.146" stroke="#312E3A" stroke-width="3.74" stroke-linecap="round" stroke-linejoin="round"/>
<path d="M147.649 352.387C148.359 345.612 152.927 340.768 158.542 341.124C164.158 341.48 168.032 347.458 167.693 354.148C166.983 360.838 162.061 366.105 156.783 365.411C151.167 364.699 146.939 359.076 147.649 352.387Z" fill="#2FA4A1"/>
<path d="M130.073 350.976L73.1203 346.406" stroke="#312E3A" stroke-width="3.74" stroke-linecap="round" stroke-linejoin="round"/>
<path d="M144.486 390.033C145.196 383.36 149.763 378.432 155.379 378.77C160.995 379.109 164.869 385.121 164.53 391.794C163.82 398.484 158.898 403.413 153.62 403.057C148.004 402.363 144.131 396.723 144.486 390.033Z" fill="#2FA4A1"/>
<path d="M126.912 388.287L70.3144 382.65" stroke="#312E3A" stroke-width="3.74" stroke-linecap="round" stroke-linejoin="round"/>
<path d="M539.943 215.116L562.795 215.472C563.84 215.419 564.834 215.002 565.606 214.294C566.378 213.587 566.879 212.631 567.024 211.593L568.715 187.662C568.739 187.102 568.646 186.543 568.443 186.02C568.24 185.498 567.931 185.023 567.535 184.627C567.139 184.23 566.665 183.921 566.143 183.717C565.621 183.514 565.063 183.421 564.503 183.445H541.651C540.611 183.501 539.623 183.917 538.855 184.621C538.087 185.325 537.586 186.274 537.439 187.307L535.748 210.899C535.881 211.968 536.366 212.962 537.125 213.726C537.884 214.489 538.875 214.978 539.943 215.116Z" fill="#FFC84D"/>
<path d="M515.348 183.441L436.253 183.086" stroke="#312E3A" stroke-width="3.74" stroke-linecap="round" stroke-linejoin="round"/>
<path d="M513.928 203.855L434.85 203.145" stroke="#312E3A" stroke-width="3.74" stroke-linecap="round" stroke-linejoin="round"/>
<path d="M160.656 209.476L178.586 209.831C179.153 209.752 179.685 209.513 180.119 209.14C180.554 208.768 180.873 208.279 181.039 207.731L182.73 184.85C182.74 184.524 182.683 184.2 182.563 183.897C182.443 183.594 182.263 183.318 182.034 183.087C181.804 182.856 181.53 182.674 181.229 182.552C180.927 182.43 180.603 182.37 180.278 182.378H162.348C161.779 182.463 161.246 182.706 160.809 183.081C160.372 183.455 160.05 183.945 159.878 184.495L158.187 207.02C158.231 207.66 158.505 208.261 158.96 208.713C159.414 209.165 160.017 209.436 160.656 209.476Z" fill="#312E3A"/>
<path d="M143.775 182.039H85.0802" stroke="#312E3A" stroke-width="3.74" stroke-linecap="round" stroke-linejoin="round"/>
<path d="M142.033 199.973L83.6764 199.279" stroke="#312E3A" stroke-width="3.74" stroke-linecap="round" stroke-linejoin="round"/>
<path d="M179.279 229.189L81.5612 226.734" stroke="#312E3A" stroke-width="3.74" stroke-linecap="round" stroke-linejoin="round"/>
<path d="M536.085 269.671L558.937 270.382C559.997 270.382 561.018 269.983 561.798 269.265C562.578 268.547 563.06 267.561 563.149 266.504L564.841 242.573C564.872 242.039 564.797 241.504 564.618 241.001C564.439 240.497 564.16 240.034 563.798 239.641C563.437 239.247 563 238.93 562.513 238.71C562.027 238.489 561.501 238.369 560.967 238.356L538.115 237.645C537.072 237.701 536.082 238.119 535.314 238.827C534.545 239.535 534.047 240.488 533.903 241.523L532.211 265.098C532.144 266.213 532.51 267.311 533.231 268.163C533.953 269.015 534.975 269.555 536.085 269.671Z" fill="#FFC84D"/>
<path d="M511.474 237.284L432.379 235.186" stroke="#312E3A" stroke-width="3.74" stroke-linecap="round" stroke-linejoin="round"/>
<path d="M510.07 258.046L430.976 255.592" stroke="#312E3A" stroke-width="3.74" stroke-linecap="round" stroke-linejoin="round"/>
<path d="M478.439 99.3212L596.844 95.7985C598.727 95.7489 600.524 95.0005 601.887 93.6985C603.25 92.3966 604.081 90.634 604.219 88.753L605.623 70.123C605.712 69.0676 605.577 68.0051 605.225 67.0062C604.873 66.0072 604.313 65.0946 603.582 64.329C602.851 63.5634 601.965 62.9622 600.984 62.5654C600.003 62.1686 598.95 61.9852 597.892 62.0274L479.487 66.9559C477.611 67.0129 475.822 67.762 474.464 69.0594C473.106 70.3567 472.274 72.1107 472.129 73.9845L470.691 91.2087C470.633 92.2593 470.792 93.3105 471.156 94.2974C471.52 95.2843 472.083 96.1859 472.809 96.9464C473.535 97.7068 474.409 98.31 475.378 98.7184C476.346 99.1269 477.388 99.3321 478.439 99.3212Z" fill="#2FA4A1"/>
<path d="M358.562 182.732L246.77 182.377" stroke="#312E3A" stroke-width="3.74" stroke-linecap="round" stroke-linejoin="round"/>
<path d="M357.158 202.447L245.367 201.043" stroke="#312E3A" stroke-width="3.74" stroke-linecap="round" stroke-linejoin="round"/>
<path d="M355.044 233.422L294.945 232.018" stroke="#312E3A" stroke-width="3.74" stroke-linecap="round" stroke-linejoin="round"/>
<path d="M74.1882 97.5662C74.5265 92.2821 78.4 87.7093 82.9671 87.4044C87.1958 87.0657 90.6973 91.6385 90.0037 96.9057C89.6485 102.545 85.775 107.067 81.208 107.067C76.9961 107.423 73.833 102.85 74.1882 97.5662Z" fill="#63737A"/>
<path d="M105.462 96.5113C105.817 90.8715 110.029 86.3495 114.258 86.3495C118.825 85.9939 121.988 90.5667 121.633 96.2065C121.278 101.846 117.066 106.368 112.499 106.368C108.287 106.351 105.073 101.779 105.462 96.5113Z" fill="#63737A"/>
<path d="M137.805 95.088C138.161 89.4652 142.372 84.9262 146.939 84.5367C151.506 84.1472 155.025 88.7538 154.686 94.3936C154.348 100.033 150.119 104.555 145.536 104.945C140.596 105.301 137.45 100.728 137.805 95.088Z" fill="#63737A"/>
<path d="M243.014 282.45C242.108 282.431 241.191 282.518 240.265 282.711C231.15 284.449 225.97 294.156 229.558 302.703L269.579 397.681C270.882 400.81 272.965 403.447 275.541 405.417C275.859 405.649 276.206 405.881 276.525 406.112C279.563 408.141 283.18 409.271 287 409.271C294.842 409.271 301.903 404.403 304.681 397.043L320.279 355.958V403.707C320.279 408.401 322.16 412.689 325.256 415.732C328.294 418.832 332.519 420.715 337.178 420.744C346.612 420.802 354.31 412.516 354.31 403.07V316.408C354.31 308.701 348.059 302.471 340.39 302.471H322.304C316.661 302.471 311.597 305.861 309.456 311.048L293.019 350.395C290.878 355.552 283.556 355.581 281.415 350.424L276.553 338.979L256.442 291.345C254.127 285.869 248.773 282.45 243.014 282.45Z" fill="#FFC84D"/>
<path d="M250.331 372.996L223.908 311.682C222.992 309.591 219.804 310.23 219.804 312.495V403.667C219.804 413.107 227.569 420.746 237.164 420.746C246.759 420.746 254.523 413.107 254.523 403.667V393.24C254.523 386.299 253.106 379.415 250.331 372.996Z" fill="#FDFDFE"/>
</svg>
