<svg width="668" height="586" viewBox="0 0 668 586" fill="none" xmlns="http://www.w3.org/2000/svg">
<path d="M630.229 495.299L36.1566 585.259C33.0191 585.744 29.8151 585.572 26.7475 584.754C23.6799 583.937 20.8157 582.491 18.3364 580.508C15.8572 578.526 13.817 576.05 12.3451 573.238C10.8732 570.426 10.0018 567.339 9.78609 564.172L-25.7355 29.3186C-25.979 25.8392 -25.4725 22.3481 -24.2501 19.0812C-23.0278 15.8143 -21.1181 12.8478 -18.6502 10.3823C-16.1823 7.91673 -13.2136 6.00958 -9.9449 4.78974C-6.67619 3.5699 -3.18362 3.0658 0.296753 3.31152L595.418 41.2738C600.883 41.6035 606.05 43.8733 609.988 47.6742C613.927 51.4752 616.378 56.5574 616.9 62.0051L651.001 469.292C651.379 475.43 649.463 481.489 645.625 486.294C641.787 491.1 636.3 494.309 630.229 495.299Z" fill="#63737A"/>
<path d="M646.401 494.589L49.5034 584.92C46.3684 585.398 43.1684 585.22 40.1057 584.397C37.0431 583.575 34.1845 582.126 31.7107 580.143C29.237 578.159 27.2018 575.684 25.7341 572.874C24.2663 570.064 23.3978 566.98 23.1836 563.817L-12.7101 26.5115C-12.9529 22.9869 -12.4373 19.4513 -11.1979 16.1428C-9.95857 12.8344 -8.02428 9.82984 -5.52537 7.33172C-3.02647 4.83361 -0.0210037 2.89992 3.28853 1.66095C6.59806 0.421982 10.1348 -0.0934962 13.6604 0.14925L611.234 38.1115C616.746 38.4669 621.946 40.7928 625.884 44.6643C629.822 48.5359 632.235 53.6946 632.683 59.1979L667.139 468.243C667.819 474.474 666.029 480.724 662.151 485.649C658.274 490.575 652.619 493.785 646.401 494.589Z" fill="#22272E"/>
<path d="M257.253 310.46L89.2362 319.591C86.6872 319.694 84.1992 318.796 82.303 317.09C80.4069 315.384 79.2528 313.005 79.0872 310.46L69.2426 168.419C69.1768 167.085 69.3788 165.752 69.8368 164.498C70.2948 163.244 70.9995 162.095 71.9092 161.117C72.819 160.14 73.9154 159.355 75.1337 158.808C76.352 158.262 77.6675 157.965 79.0026 157.935L247.036 159C249.539 158.956 251.962 159.883 253.797 161.585C255.632 163.287 256.737 165.633 256.881 168.131L266.759 299.908C266.846 301.229 266.668 302.554 266.234 303.805C265.8 305.055 265.12 306.206 264.234 307.19C263.348 308.173 262.274 308.969 261.075 309.531C259.876 310.093 258.576 310.409 257.253 310.46Z" fill="#2FA4A1"/>
<path d="M437.94 255.639L297.325 260.56C294.774 260.662 292.283 259.762 290.387 258.052C288.49 256.343 287.338 253.959 287.176 251.412L281.189 169.535C281.115 168.19 281.315 166.845 281.775 165.579C282.235 164.314 282.946 163.154 283.866 162.171C284.785 161.187 285.894 160.399 287.126 159.854C288.357 159.309 289.686 159.019 291.033 159L431.648 160.048C434.12 160.11 436.484 161.072 438.297 162.754C440.109 164.435 441.246 166.72 441.492 169.18L447.429 245.037C447.553 246.366 447.401 247.707 446.982 248.975C446.564 250.243 445.888 251.411 444.998 252.406C444.107 253.402 443.02 254.202 441.806 254.758C440.592 255.315 439.276 255.614 437.94 255.639Z" fill="#FFC84D"/>
<path d="M597.178 250.364L478.772 254.575C476.222 254.682 473.732 253.785 471.835 252.079C469.938 250.372 468.785 247.99 468.623 245.444L462.652 171.294C462.577 169.949 462.775 168.603 463.234 167.337C463.693 166.07 464.404 164.91 465.324 163.925C466.244 162.941 467.354 162.153 468.586 161.609C469.819 161.065 471.149 160.776 472.497 160.76L590.902 161.453C593.377 161.515 595.743 162.48 597.556 164.165C599.369 165.849 600.504 168.138 600.747 170.601L606.362 239.813C606.493 241.116 606.355 242.433 605.957 243.681C605.559 244.93 604.91 246.083 604.05 247.072C603.19 248.06 602.136 248.862 600.954 249.428C599.772 249.995 598.487 250.313 597.178 250.364Z" fill="#FFC84D"/>
<path d="M267.807 448.208L99.7729 466.555C98.4488 466.715 97.106 466.6 95.8277 466.22C94.5495 465.839 93.363 465.2 92.3418 464.343C91.3206 463.485 90.4864 462.427 89.8909 461.234C89.2953 460.041 88.9512 458.739 88.8797 457.407L82.5535 365.621C82.4413 363.031 83.3253 360.496 85.0239 358.537C86.7225 356.578 89.1069 355.343 91.6876 355.087L260.077 343.842C261.369 343.747 262.667 343.909 263.896 344.317C265.126 344.725 266.263 345.372 267.242 346.22C268.221 347.069 269.023 348.102 269.602 349.26C270.18 350.419 270.525 351.681 270.615 352.973L276.907 437.674C276.913 440.231 275.996 442.704 274.324 444.639C272.652 446.575 270.338 447.842 267.807 448.208V448.208Z" stroke="#63737A" stroke-width="3.74" stroke-linecap="round" stroke-linejoin="round"/>
<path d="M453.754 444.69L313.495 461.211C312.172 461.37 310.831 461.257 309.554 460.877C308.276 460.498 307.091 459.86 306.07 459.004C305.049 458.149 304.214 457.093 303.618 455.902C303.021 454.711 302.675 453.41 302.602 452.08L291.353 300.62C291.167 298.01 292.024 295.433 293.737 293.455C295.449 291.477 297.877 290.259 300.487 290.068L441.102 283.389C443.654 283.286 446.144 284.186 448.041 285.896C449.937 287.605 451.09 289.989 451.251 292.537L462.499 434.156C462.653 436.693 461.834 439.194 460.21 441.151C458.586 443.107 456.278 444.373 453.754 444.69Z" fill="#2FA4A1"/>
<path d="M611.234 409.905L492.828 422.909C491.504 423.071 490.16 422.958 488.881 422.579C487.602 422.199 486.414 421.56 485.392 420.702C484.371 419.844 483.536 418.785 482.942 417.591C482.347 416.397 482.004 415.093 481.935 413.761L472.446 291.825C472.26 289.217 473.118 286.642 474.831 284.666C476.544 282.691 478.971 281.476 481.58 281.29L599.985 275.659C602.537 275.557 605.027 276.457 606.924 278.166C608.821 279.876 609.973 282.26 610.134 284.807L619.624 399.354C619.769 400.598 619.668 401.859 619.325 403.063C618.981 404.268 618.403 405.393 617.624 406.374C616.844 407.354 615.878 408.171 614.781 408.777C613.685 409.383 612.479 409.767 611.234 409.905Z" fill="#FFC84D"/>
<path d="M182.033 390.223L184.148 416.23" stroke="#63737A" stroke-width="3.74" stroke-linecap="round" stroke-linejoin="round"/>
<path d="M170.784 404.273L195.396 402.178" stroke="#63737A" stroke-width="3.74" stroke-linecap="round" stroke-linejoin="round"/>
<path d="M517.101 314.367C516.391 307.687 511.824 302.767 506.208 302.767C500.575 303.122 496.718 308.753 497.057 315.432C497.767 322.094 502.334 327.37 507.967 327.015C513.87 326.626 517.727 320.995 517.101 314.367Z" fill="#2FA4A1"/>
<path d="M534.964 313.264L591.562 309.749" stroke="#312E3A" stroke-width="3.74" stroke-linecap="round" stroke-linejoin="round"/>
<path d="M520.197 351.923C519.486 345.16 514.919 340.323 509.303 340.679C503.688 341.034 499.814 347.003 500.152 353.682C500.863 360.361 505.785 365.62 511.063 364.927C516.678 364.217 520.907 358.603 520.197 351.923Z" fill="#2FA4A1"/>
<path d="M537.772 350.516L594.725 345.953" stroke="#312E3A" stroke-width="3.74" stroke-linecap="round" stroke-linejoin="round"/>
<path d="M523.36 389.51C522.649 382.848 518.082 377.927 512.467 378.265C506.851 378.604 502.977 384.607 503.315 391.269C504.026 397.948 508.948 402.869 514.226 402.514C519.841 401.821 523.715 396.19 523.36 389.51Z" fill="#2FA4A1"/>
<path d="M540.934 387.766L597.531 382.139" stroke="#312E3A" stroke-width="3.74" stroke-linecap="round" stroke-linejoin="round"/>
<path d="M127.903 214.868L105.051 215.223C104.006 215.17 103.011 214.754 102.239 214.048C101.468 213.341 100.966 212.387 100.822 211.351L99.1307 187.457C99.1067 186.898 99.1993 186.34 99.4025 185.818C99.6057 185.296 99.915 184.823 100.311 184.427C100.707 184.031 101.181 183.722 101.703 183.519C102.225 183.315 102.783 183.223 103.342 183.247H126.195C127.235 183.303 128.223 183.718 128.991 184.421C129.759 185.124 130.259 186.072 130.407 187.102L132.098 210.657C131.964 211.725 131.48 212.718 130.721 213.48C129.961 214.242 128.97 214.73 127.903 214.868Z" fill="#FFC84D"/>
<path d="M152.498 183.245L231.593 182.89" stroke="#312E3A" stroke-width="3.74" stroke-linecap="round" stroke-linejoin="round"/>
<path d="M153.918 203.625L232.996 202.915" stroke="#312E3A" stroke-width="3.74" stroke-linecap="round" stroke-linejoin="round"/>
<path d="M507.189 209.237L489.259 209.592C488.693 209.513 488.161 209.274 487.726 208.902C487.292 208.53 486.973 208.042 486.807 207.495L485.115 184.65C485.106 184.325 485.163 184.001 485.283 183.698C485.403 183.396 485.583 183.121 485.812 182.89C486.041 182.659 486.315 182.477 486.617 182.355C486.919 182.233 487.242 182.174 487.568 182.181H505.498C506.067 182.266 506.6 182.509 507.036 182.883C507.473 183.257 507.796 183.746 507.967 184.295L509.659 206.785C509.615 207.424 509.34 208.024 508.886 208.476C508.432 208.927 507.829 209.197 507.189 209.237Z" fill="#312E3A"/>
<path d="M524.071 181.843H582.766" stroke="#312E3A" stroke-width="3.74" stroke-linecap="round" stroke-linejoin="round"/>
<path d="M525.812 199.75L584.169 199.057" stroke="#312E3A" stroke-width="3.74" stroke-linecap="round" stroke-linejoin="round"/>
<path d="M488.566 228.919L586.284 226.469" stroke="#312E3A" stroke-width="3.74" stroke-linecap="round" stroke-linejoin="round"/>
<path d="M131.761 269.339L108.909 270.049C107.849 270.048 106.828 269.65 106.048 268.933C105.268 268.216 104.786 267.232 104.697 266.176L103.005 242.283C102.973 241.75 103.049 241.216 103.228 240.713C103.407 240.21 103.686 239.748 104.047 239.355C104.409 238.962 104.846 238.646 105.332 238.426C105.819 238.205 106.345 238.085 106.879 238.073L129.731 237.362C130.773 237.419 131.764 237.836 132.532 238.543C133.3 239.249 133.799 240.201 133.943 241.235L135.634 264.773C135.701 265.886 135.336 266.982 134.614 267.833C133.893 268.684 132.87 269.223 131.761 269.339Z" fill="#FFC84D"/>
<path d="M156.372 237.003L235.467 234.907" stroke="#312E3A" stroke-width="3.74" stroke-linecap="round" stroke-linejoin="round"/>
<path d="M157.776 257.732L236.871 255.281" stroke="#312E3A" stroke-width="3.74" stroke-linecap="round" stroke-linejoin="round"/>
<path d="M189.407 99.2557L71.002 95.7385C69.119 95.689 67.3215 94.9418 65.9587 93.6419C64.5958 92.342 63.7648 90.5821 63.627 88.7041L62.2231 70.1034C62.1335 69.0496 62.2691 67.9888 62.621 66.9915C62.9729 65.9941 63.533 65.083 64.264 64.3185C64.9951 63.5541 65.8805 62.9539 66.8613 62.5577C67.8422 62.1615 68.8962 61.9784 69.9533 62.0206L188.358 66.9413C190.235 66.9982 192.024 67.7462 193.382 69.0415C194.74 70.3367 195.571 72.088 195.716 73.9588L197.154 91.156C197.212 92.2049 197.054 93.2545 196.69 94.2398C196.326 95.2252 195.763 96.1254 195.037 96.8846C194.311 97.6439 193.436 98.2461 192.468 98.6539C191.5 99.0618 190.458 99.2666 189.407 99.2557Z" fill="#2FA4A1"/>
<path d="M309.284 182.536L421.076 182.181" stroke="#312E3A" stroke-width="3.74" stroke-linecap="round" stroke-linejoin="round"/>
<path d="M310.687 202.218L422.478 200.816" stroke="#312E3A" stroke-width="3.74" stroke-linecap="round" stroke-linejoin="round"/>
<path d="M312.802 233.145L372.901 231.743" stroke="#312E3A" stroke-width="3.74" stroke-linecap="round" stroke-linejoin="round"/>
<path d="M593.659 97.5024C593.32 92.2265 589.447 87.6609 584.88 87.3565C580.651 87.0183 577.149 91.584 577.843 96.8429C578.198 102.474 582.072 106.989 586.639 106.989C590.851 107.344 594.014 102.778 593.659 97.5024Z" fill="#63737A"/>
<path d="M562.383 96.4504C562.028 90.8194 557.816 86.3046 553.588 86.3046C549.021 85.9495 545.858 90.5151 546.213 96.146C546.568 101.777 550.78 106.292 555.347 106.292C559.559 106.275 562.773 101.709 562.383 96.4504Z" fill="#63737A"/>
<path d="M530.04 95.0304C529.685 89.4164 525.473 84.8846 520.906 84.4956C516.339 84.1067 512.821 88.7062 513.159 94.3371C513.498 99.968 517.726 104.483 522.31 104.872C527.249 105.227 530.396 100.661 530.04 95.0304Z" fill="#63737A"/>
<path d="M424.831 282.097C425.738 282.078 426.654 282.165 427.58 282.358C436.696 284.093 441.876 293.785 438.287 302.319L398.266 397.147C396.964 400.271 394.881 402.904 392.305 404.871C391.987 405.102 391.639 405.334 391.321 405.565C388.283 407.59 384.665 408.719 380.846 408.719C373.003 408.719 365.943 403.859 363.165 396.511L347.567 355.49V403.164C347.567 407.851 345.686 412.132 342.59 415.17C339.551 418.265 335.326 420.145 330.667 420.174C321.234 420.232 313.536 411.959 313.536 402.528V316.002C313.536 308.307 319.787 302.087 327.455 302.087H345.541C351.184 302.087 356.248 305.472 358.39 310.65L374.827 349.935C376.968 355.085 384.289 355.114 386.431 349.964L391.292 338.537L411.404 290.978C413.719 285.511 419.073 282.097 424.831 282.097Z" fill="#FFC84D"/>
<path d="M417.514 372.501L443.937 311.284C444.852 309.196 448.041 309.834 448.041 312.096V403.124C448.041 412.549 440.276 420.176 430.681 420.176C421.086 420.176 413.321 412.549 413.321 403.124V392.714C413.321 385.783 414.738 378.91 417.514 372.501Z" fill="#FDFDFE"/>
</svg>
