<svg width="395" height="342" viewBox="0 0 395 342" fill="none" xmlns="http://www.w3.org/2000/svg">
<g clip-path="url(#clip0_510_7929)">
<rect y="0.244141" width="395.461" height="341.845" rx="10" fill="#EDE4E0"/>
<path d="M82.1596 209.898L122.56 77.6353C123.149 75.8731 124.28 74.3424 125.792 73.2624C127.304 72.1825 129.119 71.6088 130.977 71.6233L370.012 78.3567C370.942 78.3664 371.857 78.5901 372.686 79.0104C373.516 79.4307 374.238 80.0364 374.796 80.7804C375.354 81.5244 375.733 82.3869 375.904 83.301C376.075 84.2152 376.034 85.1565 375.783 86.052L328.89 247.413C328.323 249.383 327.059 251.079 325.333 252.185C323.607 253.292 321.538 253.732 319.511 253.424L87.4501 217.593C86.5491 217.545 85.6711 217.29 84.884 216.849C84.097 216.408 83.4218 215.791 82.9106 215.048C82.3994 214.304 82.066 213.453 81.9357 212.56C81.8055 211.668 81.882 210.757 82.1596 209.898Z" fill="#312E3A"/>
<path d="M79.9961 216.633L-59 229.619L179.314 288.295C185.076 289.741 191.106 289.741 196.868 288.295L326.245 254.869L79.9961 216.633Z" fill="#63737A"/>
<path d="M179.556 288.294L-58.7578 229.617C-58.7418 231.816 -58.0034 233.949 -56.6563 235.687C-55.3093 237.425 -53.4283 238.672 -51.303 239.236L173.303 298.875C182.785 301.362 192.767 301.196 202.161 298.394L319.995 263.765C321.968 263.198 323.698 261.994 324.916 260.341C326.134 258.689 326.771 256.679 326.728 254.627L197.351 288.053C191.543 289.691 185.406 289.774 179.556 288.294Z" fill="#312E3A"/>
<path d="M239.192 100.965L222.359 158.198C222.112 158.896 221.657 159.501 221.055 159.931C220.452 160.362 219.733 160.596 218.992 160.603L124.485 152.427C124.008 152.39 123.545 152.249 123.129 152.013C122.714 151.777 122.355 151.453 122.079 151.062C121.804 150.671 121.618 150.225 121.535 149.754C121.452 149.283 121.474 148.8 121.599 148.339L137.47 95.9145C137.666 95.232 138.075 94.6302 138.638 94.1973C139.2 93.7645 139.887 93.5235 140.597 93.5098L236.066 96.8765C236.559 96.8916 237.042 97.0162 237.48 97.2413C237.919 97.4663 238.301 97.7861 238.601 98.1776C238.9 98.5691 239.109 99.0223 239.211 99.5044C239.313 99.9865 239.307 100.485 239.192 100.965Z" fill="#FDFDFE"/>
<path d="M221.156 111.303L210.576 145.691L136.989 140.4L139.635 132.705L166.809 120.681L182.199 132.705L221.156 111.303Z" fill="#E7A5C8"/>
<path d="M166.088 181.523L159.114 203.166C158.868 203.896 158.37 204.515 157.709 204.911C157.048 205.308 156.268 205.456 155.507 205.33L110.057 199.318C109.59 199.274 109.14 199.125 108.739 198.882C108.339 198.639 107.998 198.308 107.744 197.915C107.489 197.521 107.327 197.075 107.27 196.61C107.212 196.145 107.261 195.673 107.412 195.23L113.424 175.03C113.67 174.332 114.126 173.727 114.728 173.297C115.33 172.867 116.05 172.632 116.79 172.625L163.203 177.435C163.699 177.415 164.193 177.52 164.639 177.74C165.085 177.96 165.469 178.288 165.756 178.694C166.043 179.101 166.224 179.572 166.282 180.066C166.34 180.56 166.273 181.061 166.088 181.523Z" fill="#FFC84D"/>
<path d="M237.268 188.736L229.573 212.543C229.327 213.273 228.828 213.892 228.168 214.288C227.507 214.685 226.726 214.833 225.966 214.707L182.68 208.936C182.197 208.875 181.733 208.706 181.324 208.441C180.915 208.177 180.57 207.824 180.316 207.408C180.062 206.992 179.905 206.524 179.856 206.04C179.807 205.555 179.868 205.065 180.035 204.607L187.249 182.243C187.469 181.545 187.926 180.947 188.541 180.551C189.156 180.156 189.89 179.988 190.616 180.078L234.383 184.407C234.887 184.434 235.378 184.578 235.817 184.829C236.256 185.079 236.63 185.428 236.91 185.848C237.191 186.268 237.369 186.748 237.431 187.25C237.493 187.751 237.438 188.26 237.268 188.736Z" fill="#2FA4A1"/>
<path d="M319.031 196.908L310.854 223.361C310.608 224.091 310.11 224.71 309.449 225.107C308.788 225.503 308.008 225.652 307.247 225.525L255.064 218.551C254.58 218.491 254.117 218.322 253.708 218.057C253.298 217.792 252.954 217.439 252.7 217.023C252.446 216.608 252.289 216.14 252.24 215.655C252.191 215.171 252.252 214.681 252.418 214.223L260.354 189.454C260.574 188.756 261.031 188.158 261.646 187.762C262.261 187.367 262.995 187.199 263.721 187.289L315.905 192.58C316.422 192.59 316.93 192.721 317.389 192.961C317.847 193.202 318.244 193.545 318.547 193.965C318.85 194.385 319.051 194.869 319.135 195.38C319.219 195.891 319.184 196.414 319.031 196.908Z" fill="#E7A5C8"/>
<path d="M290.896 112.505C289.949 116.092 287.819 119.254 284.852 121.48C281.884 123.706 278.252 124.865 274.543 124.769C267.569 124.288 263.962 118.276 265.886 111.543C266.949 108.333 268.972 105.528 271.682 103.507C274.391 101.485 277.657 100.345 281.036 100.24C282.565 100.179 284.087 100.477 285.48 101.11C286.873 101.744 288.098 102.695 289.057 103.887C290.016 105.08 290.681 106.481 291.001 107.977C291.32 109.474 291.284 111.025 290.896 112.505Z" fill="#FFC84D"/>
<path d="M307.971 104.564L343.08 105.767" stroke="#63737A" stroke-width="1.8" stroke-linecap="round" stroke-linejoin="round"/>
<path d="M253.14 150.258L328.409 155.548" stroke="#63737A" stroke-width="1.8" stroke-linecap="round" stroke-linejoin="round"/>
<path d="M303.883 118.76L338.993 120.203" stroke="#63737A" stroke-width="1.8" stroke-linecap="round" stroke-linejoin="round"/>
<path d="M350.147 132.879C319.161 162.908 280.66 168.84 266.709 148.172C254.367 129.913 266.038 97.4547 291.259 73.9796C316.076 50.9049 348.805 41.3807 366.519 53.5891C386.502 67.2581 380.599 103.357 350.147 132.879Z" fill="#F8AB5D"/>
<path d="M345.72 128.306C314.734 158.355 276.233 164.268 262.282 143.599C249.94 125.355 261.611 92.8936 286.832 69.4148C311.649 46.3438 344.378 36.8195 362.092 49.0242C382.208 62.8416 376.173 98.9292 345.72 128.306Z" fill="#FFE779"/>
<path d="M332.707 115.294C314.063 133.138 290.721 137.564 281.331 125.623C272.744 114.623 279.588 93.8321 295.952 78.5392C312.183 63.3797 333.245 57.611 344.111 66.1973C355.782 75.3212 351.089 97.5877 332.707 115.294Z" fill="#2FA4A1"/>
<path d="M320.77 103.359C313.392 110.332 304.002 112.346 299.979 107.919C296.086 103.626 298.637 94.906 305.611 88.3329C312.584 81.7597 321.575 79.6131 325.868 83.5133C330.294 87.3949 328.148 96.3816 320.77 103.359Z" fill="#E7A5C8"/>
<path d="M273.149 58.2843C272.472 58.9118 271.677 59.3993 270.811 59.719C269.945 60.0386 269.024 60.184 268.101 60.1468C267.179 60.1095 266.273 59.8905 265.435 59.5022C264.598 59.1138 263.845 58.5639 263.22 57.8839L239.341 27.4315C238.748 26.6645 238.461 25.7047 238.536 24.7381C238.611 23.7716 239.042 22.8672 239.745 22.2004C240.462 21.5522 241.394 21.1934 242.361 21.1934C243.327 21.1934 244.259 21.5522 244.976 22.2004L273.416 48.3522C274.082 49.0047 274.607 49.7877 274.956 50.6523C275.306 51.5168 275.474 52.4442 275.449 53.3765C275.424 54.3088 275.207 55.2259 274.811 56.0703C274.415 56.9148 273.849 57.6685 273.149 58.2843Z" fill="#22272E"/>
<path d="M244.843 33.1947L237.198 34.2587C235.051 34.5294 234.232 37.2246 235.856 38.5519C240.555 42.6945 246.315 45.4445 252.491 46.4931L256.38 47.1641C256.481 47.1829 256.586 47.1716 256.681 47.1316C256.776 47.0916 256.857 47.0246 256.914 46.939C256.971 46.8534 257.002 46.7528 257.003 46.6499C257.003 46.5469 256.974 46.446 256.918 46.3596L247.256 34.1327C246.959 33.7935 246.585 33.5311 246.164 33.3678C245.744 33.2045 245.291 33.1451 244.843 33.1947Z" fill="#2FA4A1"/>
<path d="M250.478 28.1001L252.216 20.5889C252.318 20.1191 252.553 19.6885 252.893 19.3493C253.234 19.0101 253.665 18.7766 254.136 18.677C254.606 18.5775 255.095 18.6161 255.544 18.7883C255.993 18.9604 256.382 19.2588 256.665 19.6473C260.433 24.635 262.706 30.5903 263.22 36.8198L263.49 40.7089C263.488 40.8017 263.461 40.8922 263.411 40.9705C263.361 41.0489 263.291 41.1123 263.208 41.1538C263.125 41.1953 263.032 41.2135 262.939 41.2063C262.847 41.1991 262.758 41.1668 262.682 41.113L251.282 30.647C250.478 29.8425 250.207 28.9046 250.478 28.1001Z" fill="#2FA4A1"/>
<path d="M272.073 57.0762L279.722 65.2584" stroke="#22272E" stroke-width="6.51" stroke-linecap="round" stroke-linejoin="round"/>
</g>
<defs>
<clipPath id="clip0_510_7929">
<rect width="395" height="341" fill="white" transform="translate(0 0.623047)"/>
</clipPath>
</defs>
</svg>
