<svg width="20" height="20" viewBox="0 0 20 20" fill="none" xmlns="http://www.w3.org/2000/svg">
<path d="M19.2841 7.27657L13.3333 6.41173L10.6731 1.01876C10.6005 0.871102 10.4809 0.751571 10.3333 0.678915C9.96297 0.496102 9.51297 0.648446 9.32781 1.01876L6.66766 6.41173L0.716878 7.27657C0.552815 7.30001 0.402815 7.37735 0.287971 7.49454C0.149131 7.63724 0.0726244 7.82923 0.0752613 8.02831C0.0778981 8.22739 0.159463 8.41728 0.302034 8.55626L4.6075 12.7539L3.59031 18.6813C3.56646 18.8191 3.58172 18.961 3.63436 19.0906C3.687 19.2203 3.77491 19.3326 3.88813 19.4148C4.00135 19.497 4.13535 19.5459 4.27492 19.5558C4.4145 19.5658 4.55407 19.5364 4.67781 19.4711L10.0005 16.6727L15.3231 19.4711C15.4684 19.5484 15.6372 19.5742 15.7989 19.5461C16.2067 19.4758 16.4809 19.0891 16.4106 18.6813L15.3934 12.7539L19.6989 8.55626C19.8161 8.44142 19.8934 8.29142 19.9169 8.12735C19.9802 7.7172 19.6942 7.33751 19.2841 7.27657Z" fill="#FFC84D"/>
</svg>
