<svg width="215" height="262" viewBox="0 0 215 262" fill="none" xmlns="http://www.w3.org/2000/svg">
<path d="M104.417 261.814L16.2035 256.382C14.6513 256.298 13.1349 255.883 11.7557 255.166C10.3764 254.449 9.166 253.446 8.20517 252.224C7.24435 251.002 6.55522 249.589 6.18379 248.079C5.81236 246.57 5.76717 244.998 6.05124 243.47L39.6643 55.1067C40.2367 51.9682 41.8111 49.1 44.1515 46.9321C46.4919 44.7641 49.472 43.4134 52.645 43.0825L141.255 34.5084C142.938 34.3454 144.637 34.5715 146.219 35.1693C147.801 35.7671 149.224 36.7205 150.379 37.9559C151.534 39.1913 152.389 40.6757 152.879 42.2943C153.369 43.9129 153.48 45.6225 153.204 47.2909L119.728 249.516C119.177 253.109 117.298 256.366 114.464 258.642C111.63 260.919 108.045 262.05 104.417 261.814Z" fill="#EDE4E0"/>
<path d="M99.5863 261.207L11.3656 255.782C9.81336 255.698 8.29702 255.283 6.91778 254.566C5.53853 253.849 4.32811 252.846 3.36728 251.624C2.40645 250.402 1.71733 248.989 1.3459 247.479C0.974476 245.97 0.929281 244.398 1.21334 242.87L34.8264 54.5068C35.3988 51.3683 36.9732 48.5001 39.3136 46.3321C41.654 44.1642 44.6341 42.8135 47.8071 42.4826L136.445 33.9085C138.129 33.7491 139.828 33.979 141.41 34.5806C142.991 35.1822 144.414 36.1394 145.566 37.3781C146.719 38.6168 147.572 40.1039 148.059 41.7247C148.545 43.3454 148.653 45.0563 148.373 46.7252L114.897 248.984C114.311 252.556 112.421 255.783 109.593 258.041C106.764 260.299 103.199 261.427 99.5863 261.207Z" fill="#312E3A"/>
<path d="M188.491 154.754L52.6651 157.118C51.8366 157.132 51.0154 156.962 50.2603 156.621C49.5052 156.28 48.8352 155.775 48.2982 155.144C47.7612 154.513 47.3707 153.771 47.1548 152.971C46.9388 152.171 46.9028 151.334 47.0493 150.518L57.0034 93.813C57.2873 92.2494 58.078 90.8228 59.2536 89.7534C60.4291 88.6841 61.924 88.0315 63.5074 87.8965L197.557 78.9262C198.63 78.8541 199.705 79.0256 200.703 79.4279C201.7 79.8301 202.594 80.4528 203.316 81.2492C204.039 82.0456 204.573 82.9951 204.877 84.0268C205.181 85.0584 205.247 86.1454 205.072 87.2065L195.2 148.837C195.018 150.481 194.23 151.999 192.989 153.093C191.749 154.187 190.145 154.779 188.491 154.754Z" fill="#EDE4E0"/>
<path d="M173.509 246.095L37.6832 240.186C36.8844 240.142 36.1036 239.931 35.3916 239.566C34.6795 239.202 34.0522 238.691 33.5503 238.068C33.0484 237.445 32.6831 236.723 32.4783 235.95C32.2734 235.177 32.2335 234.369 32.3612 233.579L42.6091 175.508C42.9036 173.862 43.7639 172.37 45.0413 171.291C46.3187 170.212 47.9329 169.613 49.605 169.598L183.852 168.512C184.889 168.509 185.914 168.731 186.857 169.163C187.8 169.595 188.637 170.227 189.312 171.014C189.987 171.801 190.483 172.726 190.766 173.723C191.049 174.721 191.112 175.768 190.951 176.792L180.894 240.172C180.596 241.89 179.682 243.439 178.322 244.53C176.962 245.621 175.25 246.177 173.509 246.095Z" fill="#EDE4E0"/>
<path d="M32.7568 65.8501L146.7 56.7773" stroke="#EDE4E0" stroke-width="1.31332" stroke-linecap="round" stroke-linejoin="round"/>
<path d="M90.7125 52.1465L80.9566 53.0346C80.0684 53.1371 79.5902 52.4471 79.6721 51.4564C79.7555 50.9905 79.9796 50.5613 80.3143 50.2267C80.649 49.892 81.0782 49.6679 81.5441 49.5845L91.3069 48.6963C92.1951 48.6007 92.7826 49.2907 92.5845 50.2745C92.4882 50.7347 92.2599 51.1569 91.9274 51.4894C91.5949 51.8218 91.1728 52.0502 90.7125 52.1465Z" fill="#312E3A"/>
<path d="M97.2165 51.5579C96.3283 51.6535 95.7408 50.9635 95.9389 49.9797C96.0204 49.513 96.2439 49.0828 96.5789 48.7478C96.9139 48.4127 97.3441 48.1892 97.8108 48.1077C98.699 48.0053 99.2865 48.6953 99.0884 49.6859C99.0404 50.166 98.8277 50.6147 98.4865 50.9559C98.1453 51.2971 97.6966 51.5098 97.2165 51.5579Z" fill="#312E3A"/>
<path d="M207.019 58.2618L169.444 61.1175C169.133 61.1511 168.819 61.1112 168.527 61.0012C168.234 60.8912 167.972 60.7141 167.76 60.4841C167.549 60.2541 167.395 59.9777 167.31 59.6772C167.225 59.3766 167.211 59.0603 167.271 58.7537L171.015 35.9829C171.118 35.3115 171.443 34.6942 171.939 34.2297C172.434 33.7652 173.071 33.4804 173.748 33.4209L210.907 29.4789C211.272 29.4394 211.642 29.4835 211.988 29.6079C212.334 29.7324 212.647 29.9338 212.904 30.1971C213.16 30.4603 213.354 30.7785 213.469 31.1275C213.585 31.4765 213.62 31.8472 213.571 32.2116L209.923 55.6725C209.753 56.3448 209.385 56.9507 208.868 57.4122C208.35 57.8737 207.706 58.1696 207.019 58.2618V58.2618Z" stroke="#2FA4A1" stroke-width="1.31332" stroke-linecap="round" stroke-linejoin="round"/>
<path d="M172.032 34.0133L188.367 44.5549C188.805 44.8457 189.318 45.0009 189.843 45.0009C190.368 45.0009 190.882 44.8457 191.319 44.5549L212.614 29.9688" stroke="#2FA4A1" stroke-width="1.31332" stroke-linecap="round" stroke-linejoin="round"/>
<path d="M37.5869 100.836L6.73393 102.516L2.19753 105.468C1.96323 105.624 1.68777 105.706 1.40637 105.705C1.12496 105.703 0.850428 105.617 0.617878 105.459C0.385327 105.301 0.205336 105.076 0.100932 104.815C-0.0034708 104.554 -0.027539 104.267 0.0318062 103.992L4.86198 77.1836C5.04523 76.1383 5.57096 75.1837 6.35637 74.47C7.14178 73.7563 8.14225 73.3242 9.20026 73.2416L41.3103 70.7752C41.8007 70.73 42.2949 70.7985 42.7546 70.9753C43.2142 71.152 43.6269 71.4324 43.9607 71.7945C44.2944 72.1567 44.5401 72.5909 44.6788 73.0634C44.8176 73.5359 44.8455 74.0341 44.7605 74.5191L40.6203 97.98C40.5141 98.7297 40.1559 99.421 39.6046 99.94C39.0533 100.459 38.3417 100.775 37.5869 100.836Z" fill="#2FA4A1"/>
<path d="M10.875 81.1298L36.8978 79.2578" stroke="#312E3A" stroke-width="1.31332" stroke-linecap="round" stroke-linejoin="round"/>
<path d="M9.69238 87.7265L35.7152 85.957" stroke="#312E3A" stroke-width="1.31332" stroke-linecap="round" stroke-linejoin="round"/>
<path d="M8.50977 94.2378L22.1121 93.4453" stroke="#312E3A" stroke-width="1.31332" stroke-linecap="round" stroke-linejoin="round"/>
<path d="M181.194 148.742L45.3757 151.133C44.547 151.147 43.7256 150.977 42.9703 150.636C42.215 150.295 41.5445 149.791 41.0071 149.16C40.4696 148.529 40.0784 147.787 39.8616 146.987C39.6448 146.188 39.6077 145.35 39.753 144.534L49.7071 87.8286C49.9913 86.264 50.7831 84.8366 51.96 83.7671C53.1369 82.6976 54.6333 82.0457 56.218 81.9122L190.267 72.9418C191.34 72.8697 192.416 73.0412 193.413 73.4435C194.411 73.8458 195.304 74.4684 196.027 75.2648C196.75 76.0612 197.283 77.0107 197.587 78.0424C197.891 79.074 197.958 80.161 197.782 81.2221L187.924 142.826C187.727 144.467 186.932 145.979 185.69 147.07C184.448 148.162 182.848 148.757 181.194 148.742Z" fill="#312E3A"/>
<path d="M80.5601 105.866C79.8769 109.91 76.3243 113.381 72.6761 113.552C69.0278 113.723 66.664 110.6 67.354 106.556C68.044 102.511 71.5898 99.0408 75.238 98.87C78.8863 98.6992 81.2501 101.828 80.5601 105.866Z" fill="#EDE4E0"/>
<path d="M77.9972 131.792L61.8329 132.284C61.3176 132.305 60.8041 132.21 60.3302 132.007C59.8563 131.804 59.4338 131.497 59.0938 131.109C58.7539 130.721 58.505 130.262 58.3654 129.766C58.2258 129.269 58.199 128.748 58.2871 128.24L58.5809 126.464C59.8585 119.174 66.1712 112.964 72.7708 112.8C79.3773 112.506 83.8112 118.32 82.5336 125.712L82.1374 128.274C81.9375 129.238 81.4217 130.107 80.6717 130.744C79.9218 131.382 78.9805 131.751 77.9972 131.792Z" fill="#EDE4E0"/>
<path d="M166.608 106.552L102.244 109.51C101.926 109.535 101.607 109.486 101.312 109.366C101.017 109.246 100.754 109.059 100.544 108.82C100.333 108.58 100.182 108.295 100.101 107.987C100.02 107.679 100.013 107.356 100.078 107.044L100.762 102.706C100.889 101.997 101.249 101.351 101.785 100.87C102.32 100.388 103.001 100.099 103.72 100.048L168.179 96.6938C168.497 96.6689 168.816 96.7183 169.111 96.8383C169.406 96.9582 169.669 97.1453 169.879 97.3847C170.09 97.6241 170.241 97.9092 170.322 98.2174C170.403 98.5256 170.41 98.8484 170.345 99.1601L169.559 103.895C169.463 104.616 169.114 105.28 168.573 105.767C168.032 106.254 167.335 106.533 166.608 106.552Z" fill="#2FA4A1"/>
<path d="M101.554 121.141L102.538 124.201L105.599 124.693L102.935 127.351L102.736 130.801L100.174 129.421L97.0181 130.999L98.0087 127.549L96.2324 125.089L99.4844 124.297L101.554 121.141Z" fill="#EDE4E0"/>
<path d="M116.339 120.648L117.425 123.702L120.479 124.201L117.821 126.859L117.719 130.309L114.959 128.929L111.809 130.507L112.793 127.057L111.017 124.495L114.269 123.805L116.339 120.648Z" fill="#EDE4E0"/>
<path d="M131.518 120.059L132.605 123.112L135.754 123.7L132.994 126.364L132.898 129.91L130.138 128.435L126.886 130.108L127.87 126.563L125.998 124.001L129.448 123.208L131.518 120.059Z" fill="#EDE4E0"/>
<path d="M146.993 119.469L148.079 122.625L151.331 123.117L148.571 125.877L148.475 129.423L145.613 127.947L142.265 129.621L143.345 125.973L141.377 123.513L144.827 122.721L146.993 119.469Z" fill="#EDE4E0"/>
<path d="M162.865 118.871L163.951 122.027L167.299 122.622L164.443 125.279L164.341 128.928L161.382 127.452L158.035 129.126L159.121 125.478L157.146 122.916L160.597 122.13L162.865 118.871Z" fill="#EDE4E0"/>
<path d="M166.116 240.115L30.3925 234.103C29.5929 234.061 28.811 233.852 28.0979 233.488C27.3848 233.123 26.7566 232.613 26.2543 231.989C25.752 231.366 25.3869 230.643 25.1829 229.869C24.9789 229.095 24.9406 228.286 25.0705 227.496L35.3184 169.425C35.6127 167.778 36.4728 166.286 37.75 165.206C39.0273 164.125 40.6416 163.525 42.3143 163.508L176.562 162.422C177.599 162.418 178.625 162.64 179.568 163.071C180.511 163.503 181.349 164.134 182.024 164.922C182.699 165.709 183.195 166.634 183.478 167.632C183.76 168.63 183.822 169.678 183.66 170.702L173.61 234.103C173.309 235.846 172.381 237.42 171.001 238.527C169.62 239.634 167.883 240.199 166.116 240.115Z" fill="#312E3A"/>
<path d="M66.0753 189.747C65.3921 193.887 61.8395 197.262 58.0956 197.139C54.3517 197.016 52.0835 193.723 52.7736 189.548C53.4636 185.374 57.0094 182.156 60.6576 182.156C64.3059 182.156 66.861 185.606 66.0753 189.747Z" fill="#EDE4E0"/>
<path d="M63.2128 216.357L47.0484 215.865C46.555 215.84 46.0722 215.713 45.6304 215.492C45.1887 215.271 44.7978 214.96 44.4824 214.58C44.167 214.2 43.9341 213.758 43.7984 213.283C43.6626 212.808 43.6271 212.31 43.694 211.82L44.0902 209.771C45.3746 202.256 51.6805 196.36 58.287 196.462C64.8866 196.558 69.3205 202.768 67.9405 210.358L67.5511 212.825C67.3713 213.836 66.8344 214.748 66.0381 215.397C65.2419 216.045 64.2392 216.386 63.2128 216.357Z" fill="#EDE4E0"/>
<path d="M151.927 195.858L87.5567 194.97C87.2535 194.963 86.9552 194.891 86.6821 194.76C86.4089 194.628 86.1671 194.439 85.9729 194.206C85.7788 193.973 85.6367 193.701 85.5564 193.409C85.476 193.116 85.4592 192.81 85.5071 192.511L86.2928 187.974C86.4151 187.227 86.8005 186.549 87.3794 186.061C87.9582 185.574 88.6924 185.31 89.4491 185.317L153.908 185.808C154.212 185.815 154.51 185.887 154.783 186.019C155.056 186.151 155.298 186.339 155.492 186.572C155.686 186.805 155.828 187.077 155.909 187.37C155.989 187.662 156.006 187.968 155.958 188.268L155.172 193.201C155.004 193.941 154.593 194.605 154.006 195.086C153.418 195.567 152.687 195.839 151.927 195.858Z" fill="#2FA4A1"/>
<path d="M86.9686 206.895L87.9524 210.051L91.0063 210.741L88.3487 213.303L88.253 216.849L85.5886 215.175L82.4322 216.651L83.416 213.105L81.7422 210.543L84.8985 209.948L86.9686 206.895Z" fill="#EDE4E0"/>
<path d="M101.848 207.188L102.839 210.344L105.989 211.13L103.228 213.698L103.133 217.244L100.373 215.666L97.2163 217.148L98.207 213.596L96.4307 210.836L99.7851 210.344L101.848 207.188Z" fill="#EDE4E0"/>
<path d="M117.028 207.586L118.012 210.742L121.271 211.528L118.511 214.09L118.312 217.738L115.552 216.064L112.3 217.54L113.38 213.994L111.508 211.234L114.862 210.742L117.028 207.586Z" fill="#EDE4E0"/>
<path d="M132.504 207.879L133.59 211.131L136.842 211.923L133.986 214.588L133.884 218.229L131.028 216.555L127.673 218.031L128.76 214.39L126.888 211.63L130.338 211.035L132.504 207.879Z" fill="#2FA4A1"/>
<path d="M148.277 208.273L149.459 211.525L152.711 212.318L149.855 214.976L149.753 218.719L146.897 216.95L143.447 218.528L144.526 214.777L142.559 212.12L146.104 211.525L148.277 208.273Z" fill="#2FA4A1"/>
<path d="M163.773 12.9168C163.246 12.3335 162.558 11.9193 161.796 11.7267C161.034 11.5341 160.232 11.5716 159.492 11.8346C158.751 12.0976 158.105 12.5741 157.635 13.2041C157.165 13.8341 156.892 14.5893 156.851 15.3742C156.81 16.1591 157.003 16.9386 157.404 17.6141C157.806 18.2896 158.399 18.831 159.108 19.1697C159.818 19.5084 160.611 19.6293 161.389 19.5171C162.167 19.405 162.894 19.0648 163.479 18.5395C163.872 18.1925 164.192 17.7706 164.42 17.2985C164.648 16.8263 164.78 16.3135 164.807 15.7899C164.834 15.2663 164.757 14.7425 164.579 14.2492C164.402 13.7558 164.128 13.3029 163.773 12.9168Z" fill="#312E3A"/>
<path d="M158.431 3.65273L157.748 2.86706C157.193 2.25376 156.522 1.75658 155.774 1.4043C155.026 1.05203 154.216 0.851661 153.39 0.814806C152.564 0.777952 151.739 0.905342 150.962 1.1896C150.186 1.47386 149.473 1.90933 148.866 2.47081C148.253 3.02536 147.755 3.69629 147.403 4.44464C147.051 5.19299 146.851 6.00385 146.815 6.83015C146.778 7.65644 146.907 8.4817 147.192 9.258C147.477 10.0343 147.914 10.7462 148.477 11.3523L149.16 12.1448C149.963 13.0451 150.537 14.1254 150.834 15.2943C151.032 16.1825 151.326 17.2688 151.619 18.2526C151.743 18.7455 151.992 19.1982 152.342 19.5668C152.691 19.9354 153.131 20.2074 153.616 20.3565C154.102 20.5056 154.618 20.5268 155.115 20.4179C155.611 20.309 156.071 20.0738 156.45 19.7351L160.884 15.6906L165.324 11.6529C165.702 11.3132 165.984 10.8811 166.143 10.3992C166.303 9.91725 166.334 9.40208 166.234 8.90436C166.134 8.40664 165.907 7.94352 165.573 7.56056C165.24 7.17761 164.813 6.88801 164.334 6.72027C163.35 6.33085 162.366 6.03708 161.478 5.73647C160.354 5.21536 159.324 4.5112 158.431 3.65273Z" fill="#2FA4A1"/>
</svg>
