<svg width="396" height="343" viewBox="0 0 396 343" fill="none" xmlns="http://www.w3.org/2000/svg">
<rect y="0.244141" width="395.461" height="341.845" rx="10" fill="#EDE4E0"/>
<path d="M281.922 69.1694L281.925 69.1691C283.253 69.0589 284.588 69.2487 285.832 69.7246C287.076 70.2004 288.196 70.95 289.111 71.9179C290.026 72.8858 290.712 74.0472 291.117 75.3159C291.522 76.5847 291.636 77.9283 291.451 79.2472L291.451 79.2522L263.743 292.598C263.743 292.599 263.743 292.6 263.743 292.601C263.309 295.626 261.762 298.38 259.404 300.323C257.046 302.267 254.046 303.26 250.994 303.107C250.994 303.107 250.993 303.107 250.993 303.107L39.8303 291.295C38.6245 291.228 37.4448 290.918 36.3619 290.384C35.2789 289.85 34.3151 289.102 33.5282 288.186C32.7413 287.27 32.1475 286.205 31.7826 285.054C31.4177 283.903 31.289 282.691 31.4042 281.489C31.4042 281.489 31.4043 281.488 31.4043 281.488L49.4871 97.014C49.4872 97.0135 49.4872 97.0129 49.4873 97.0124C49.781 94.1912 51.045 91.5594 53.0635 89.5665C55.0814 87.5741 57.7283 86.3439 60.5522 86.0857C60.5534 86.0856 60.5547 86.0854 60.5559 86.0853L281.922 69.1694Z" fill="#312E3A" stroke="#63737A"/>
<path d="M32.9757 291.295L32.9708 291.295C31.7617 291.24 30.5767 290.938 29.4887 290.408C28.4007 289.877 27.4326 289.13 26.6438 288.212C25.8551 287.294 25.2624 286.225 24.9022 285.069C24.542 283.914 24.4219 282.697 24.5493 281.493L24.5497 281.489L42.633 96.1362L42.633 96.1361C42.9101 93.2853 44.1871 90.6246 46.2379 88.6251C48.2886 86.6256 50.9808 85.4163 53.8377 85.2115L53.8402 85.2113L276.234 68.149C276.234 68.149 276.234 68.1489 276.234 68.1489C277.567 68.048 278.905 68.2431 280.152 68.7205C281.4 69.1978 282.527 69.9456 283.452 70.91C284.377 71.8744 285.077 73.0316 285.501 74.2985C285.926 75.565 286.065 76.9097 285.908 78.2363C285.908 78.2367 285.908 78.2371 285.908 78.2375L258.057 292.587C258.057 292.59 258.056 292.593 258.056 292.596C257.546 295.613 255.957 298.342 253.585 300.276C251.212 302.211 248.216 303.217 245.156 303.108C245.155 303.107 245.153 303.107 245.152 303.107L32.9757 291.295Z" fill="#22272E" stroke="#63737A"/>
<path d="M211.307 212.529L240.628 212.67L237.694 235.727L208.653 235.163L211.307 212.529Z" fill="#FDFDFE" stroke="#63737A"/>
<path d="M150.353 212.375H180.258L177.608 234.556L147.982 234.133L150.353 212.375Z" fill="#E7A5C8" stroke="#63737A"/>
<path d="M178.493 235.579L207.527 236.143L204.735 258.617L175.841 257.631L178.493 235.579Z" fill="#2FA4A1" stroke="#63737A"/>
<path d="M90.4053 100.903C90.4283 100.687 90.4026 100.468 90.3301 100.263C90.2576 100.058 90.1402 99.872 89.9864 99.7182C89.8326 99.5644 89.6463 99.4469 89.4413 99.3744C89.2362 99.3019 89.0175 99.2762 88.8012 99.2992L90.4053 100.903ZM90.4053 100.903L89.9678 105.278L90.4053 100.903ZM88.8331 99.7981L88.8436 99.7975L88.854 99.7964C88.9961 99.7813 89.1399 99.7982 89.2746 99.8458C89.4093 99.8934 89.5317 99.9706 89.6328 100.072L89.9861 99.7184L89.6328 100.072C89.7339 100.173 89.8111 100.295 89.8587 100.43C89.9063 100.565 89.9232 100.708 89.9081 100.851L89.9078 100.854L89.4718 105.213C89.39 105.707 89.1482 106.16 88.7836 106.504C88.4178 106.848 87.9488 107.062 87.4492 107.113L62.5406 108.57C62.2529 108.563 61.9785 108.446 61.7748 108.242C61.5735 108.041 61.4568 107.771 61.4478 107.487L61.8808 103.301C61.9561 102.824 62.1805 102.382 62.5222 102.041C62.8617 101.701 63.2993 101.478 63.7729 101.401L88.8331 99.7981Z" fill="#312E3A" stroke="#63737A"/>
<path d="M58.9658 132.889L58.9659 132.888C59.0495 132.047 59.4301 131.264 60.0393 130.678C60.6478 130.093 61.4447 129.743 62.2873 129.692C62.2882 129.692 62.2891 129.692 62.2899 129.692L106.618 127.505L106.624 127.505C106.984 127.482 107.345 127.541 107.679 127.677C108.014 127.812 108.314 128.021 108.557 128.287L108.927 127.95L108.557 128.287C108.801 128.554 108.981 128.871 109.086 129.217C109.19 129.562 109.216 129.927 109.161 130.284L109.16 130.294L109.158 130.305L106.534 154.222L106.533 154.231L106.532 154.239C106.47 155.085 106.097 155.877 105.486 156.465C104.876 157.052 104.07 157.393 103.223 157.422C103.223 157.422 103.222 157.422 103.222 157.422L59.1892 158.735C58.8332 158.735 58.4809 158.662 58.1548 158.519C57.8269 158.375 57.5327 158.164 57.2913 157.9C57.0498 157.635 56.8664 157.323 56.753 156.984L56.2788 157.142L56.753 156.984C56.6397 156.644 56.5987 156.285 56.6326 155.929C56.6327 155.929 56.6327 155.928 56.6327 155.928L58.9658 132.889Z" fill="#2FA4A1" stroke="#63737A"/>
<path d="M120.482 155.085L120.007 155.243L120.482 155.085C120.368 154.746 120.327 154.387 120.361 154.032L122.986 129.681L122.986 129.681L122.986 129.677C123.07 128.836 123.45 128.052 124.059 127.466C124.668 126.881 125.465 126.532 126.307 126.481C126.308 126.481 126.309 126.481 126.31 126.481L175.012 124.148L175.019 124.147C175.379 124.125 175.74 124.184 176.075 124.319C176.409 124.455 176.709 124.663 176.953 124.93C177.196 125.196 177.376 125.514 177.481 125.86C177.585 126.205 177.611 126.57 177.556 126.926L177.555 126.936L177.554 126.945L174.638 152.17C174.524 153.024 174.116 153.812 173.484 154.398C172.852 154.983 172.035 155.33 171.175 155.377L122.918 156.835C122.562 156.836 122.209 156.763 121.883 156.62C121.555 156.476 121.261 156.265 121.02 156.001C120.778 155.736 120.595 155.424 120.482 155.085Z" fill="#FFC84D" stroke="#63737A"/>
<path d="M191.89 154.795L191.889 154.795C191.53 154.807 191.173 154.74 190.842 154.601C190.511 154.461 190.214 154.251 189.971 153.986C189.729 153.72 189.547 153.406 189.438 153.063C189.329 152.721 189.295 152.359 189.339 152.002L189.339 152L192.401 126.337C192.401 126.336 192.402 126.336 192.402 126.335C192.507 125.5 192.896 124.726 193.503 124.142C194.109 123.56 194.895 123.202 195.731 123.128L249.242 120.503L249.248 120.503C249.608 120.48 249.969 120.539 250.304 120.675C250.638 120.81 250.938 121.019 251.182 121.285C251.425 121.552 251.606 121.87 251.71 122.215C251.815 122.56 251.841 122.925 251.786 123.282L251.785 123.282L251.784 123.295L248.43 149.983L248.429 149.983L248.428 149.996C248.345 150.837 247.964 151.62 247.355 152.206C246.747 152.79 245.952 153.139 245.111 153.191L191.89 154.795Z" fill="#E7A5C8" stroke="#63737A"/>
<path d="M114.467 279.249L225.008 284.208C226.934 284.261 228.812 283.609 230.289 282.373C231.767 281.137 232.741 279.404 233.029 277.499L245.279 180.958C245.425 179.868 245.333 178.76 245.008 177.709C244.684 176.658 244.135 175.69 243.401 174.872C242.666 174.054 241.762 173.405 240.752 172.97C239.742 172.536 238.649 172.325 237.55 172.354L124.53 174.542C122.655 174.589 120.86 175.307 119.469 176.564C118.078 177.822 117.183 179.536 116.946 181.396L107.176 270.791C107.065 271.832 107.169 272.884 107.481 273.883C107.793 274.882 108.307 275.806 108.99 276.599C109.674 277.392 110.512 278.036 111.454 278.491C112.396 278.947 113.422 279.205 114.467 279.249V279.249Z" stroke="#63737A" stroke-width="1.8" stroke-linecap="round" stroke-linejoin="round"/>
<path d="M115.926 189.273L244.258 187.961" stroke="#63737A" stroke-width="1.8" stroke-linecap="round" stroke-linejoin="round"/>
<path d="M152.53 189.859L142.176 280.421" stroke="#63737A" stroke-width="1.8" stroke-linecap="round" stroke-linejoin="round"/>
<path d="M183.447 189.562L172.51 281.874" stroke="#63737A" stroke-width="1.8" stroke-linecap="round" stroke-linejoin="round"/>
<path d="M213.634 189.422L202.259 283.192" stroke="#63737A" stroke-width="1.8" stroke-linecap="round" stroke-linejoin="round"/>
<path d="M150.051 211.875L241.196 212.167" stroke="#63737A" stroke-width="1.8" stroke-linecap="round" stroke-linejoin="round"/>
<path d="M147.426 234.633L238.133 236.237" stroke="#63737A" stroke-width="1.8" stroke-linecap="round" stroke-linejoin="round"/>
<path d="M144.802 257.234L235.072 260.005" stroke="#63737A" stroke-width="1.8" stroke-linecap="round" stroke-linejoin="round"/>
<path d="M245.527 93.1834L245.516 93.2235L245.511 93.265C245.422 94.1005 245.073 94.8871 244.515 95.5152C243.965 96.1342 243.238 96.5687 242.433 96.7601C241.751 96.8062 241.2 96.5235 240.832 96.028C240.45 95.5136 240.248 94.7406 240.379 93.8265L240.38 93.8179L240.381 93.8092C240.47 92.9737 240.819 92.1871 241.377 91.559C241.922 90.946 242.64 90.5139 243.436 90.3197C243.762 90.3315 244.082 90.414 244.374 90.5617C244.683 90.7182 244.952 90.9437 245.16 91.2207L245.56 90.9207L245.16 91.2207C245.367 91.4977 245.509 91.8188 245.572 92.1592C245.636 92.4995 245.621 92.85 245.527 93.1834Z" fill="#312E3A" stroke="#63737A"/>
<path d="M231.223 94.2686L231.219 94.2899L231.218 94.3115C231.172 95.1356 230.841 95.9181 230.281 96.5247C229.724 97.1279 228.976 97.5197 228.163 97.6337C227.472 97.6872 226.913 97.4039 226.541 96.9031C226.159 96.3887 225.957 95.6158 226.087 94.7016L226.091 94.6803L226.092 94.6587C226.138 93.8346 226.469 93.0521 227.029 92.4455C227.586 91.8423 228.334 91.4505 229.147 91.3365C229.838 91.283 230.397 91.5663 230.769 92.0671C231.151 92.5815 231.353 93.3545 231.223 94.2686Z" fill="#312E3A" stroke="#63737A"/>
<path d="M215.174 92.3499L215.175 92.3498C215.857 92.236 216.365 92.4815 216.713 92.9549C217.079 93.4524 217.285 94.2342 217.219 95.1719C217.149 95.9912 216.809 96.7641 216.251 97.3683C215.697 97.9687 214.959 98.3686 214.154 98.506C213.555 98.5544 213.028 98.2865 212.646 97.7872C212.255 97.2765 212.027 96.5275 212.091 95.6884C212.16 94.8686 212.501 94.0953 213.059 93.4907C213.617 92.8857 214.362 92.4842 215.174 92.3499Z" fill="#312E3A" stroke="#63737A"/>
<path d="M364.446 118.618L238.415 113.468C235.699 113.374 233.826 110.846 234.201 107.756L244.501 32.0061C244.697 30.5699 245.365 29.2394 246.398 28.2228C247.432 27.2063 248.773 26.561 250.212 26.3881L376.244 21.2382C377.013 21.1611 377.79 21.2608 378.515 21.5296C379.239 21.7984 379.893 22.2293 380.426 22.7894C380.959 23.3494 381.357 24.0238 381.59 24.7611C381.822 25.4984 381.883 26.279 381.768 27.0435L371.469 112.531C371.279 114.243 370.45 115.821 369.148 116.949C367.847 118.077 366.168 118.673 364.446 118.618Z" fill="#F8AB5D"/>
<path d="M362.293 117.028L236.261 111.878C233.546 111.784 231.673 109.256 232.048 106.166L242.347 30.4163C242.544 28.98 243.211 27.6495 244.245 26.633C245.278 25.6164 246.62 24.9712 248.059 24.7982L374.091 19.6483C374.86 19.5713 375.636 19.6709 376.361 19.9398C377.086 20.2086 377.74 20.6395 378.273 21.1995C378.806 21.7596 379.204 22.434 379.436 23.1712C379.669 23.9085 379.73 24.6892 379.615 25.4536L369.315 110.942C369.111 112.648 368.278 114.216 366.98 115.341C365.681 116.467 364.01 117.068 362.293 117.028Z" fill="#FFE779"/>
<path d="M262.197 68.1504H295.531" stroke="#F8AB5D" stroke-width="1.8" stroke-linecap="round" stroke-linejoin="round"/>
<path d="M291.973 95.5826L273.995 95.1144C273.338 95.0885 272.693 94.9209 272.106 94.6229C271.519 94.3249 271.004 93.9037 270.595 93.388C270.186 92.8722 269.893 92.2743 269.736 91.6349C269.58 90.9956 269.563 90.3299 269.688 89.6836L275.4 46.7056C275.588 45.2839 276.257 43.9695 277.296 42.9813C278.336 41.9931 279.682 41.3909 281.111 41.2748L299.089 40.8066" stroke="#F8AB5D" stroke-width="1.8" stroke-linecap="round" stroke-linejoin="round"/>
<path d="M318.753 45.7745L297.872 46.1491C297.601 46.1521 297.332 46.0961 297.084 45.985C296.837 45.8738 296.616 45.7102 296.438 45.5053C296.26 45.3005 296.128 45.0593 296.053 44.7986C295.977 44.5379 295.959 44.2639 296 43.9955L296.842 37.722C296.922 37.1223 297.21 36.5694 297.654 36.159C298.099 35.7486 298.673 35.5066 299.277 35.4748L320.157 34.8193C320.434 34.8105 320.71 34.8617 320.965 34.9695C321.22 35.0772 321.449 35.239 321.636 35.4436C321.823 35.6482 321.963 35.8909 322.047 36.1549C322.132 36.4188 322.158 36.6979 322.124 36.9729L321.281 43.34C321.219 43.9808 320.931 44.5784 320.467 45.0248C320.003 45.4713 319.395 45.7372 318.753 45.7745Z" fill="#2FA4A1"/>
<path d="M354.709 73.767L332.33 73.6733C332.039 73.6753 331.75 73.6129 331.485 73.4904C331.22 73.368 330.985 73.1886 330.797 72.9651C330.609 72.7415 330.473 72.4793 330.398 72.1971C330.323 71.9149 330.312 71.6197 330.364 71.3325L331.207 64.7781C331.287 64.1535 331.584 63.577 332.046 63.1492C332.509 62.7214 333.106 62.4694 333.735 62.4372L356.114 62.3436C356.412 62.3309 356.71 62.3852 356.985 62.5026C357.26 62.6199 357.505 62.7974 357.703 63.0218C357.9 63.2463 358.045 63.5121 358.127 63.7998C358.208 64.0875 358.224 64.3898 358.173 64.6845L357.331 71.3325C357.279 71.9933 356.981 72.6104 356.495 73.0614C356.009 73.5124 355.372 73.7643 354.709 73.767Z" fill="#2FA4A1"/>
<path d="M311.73 101.578L290.849 101.016C290.572 101.012 290.298 100.948 290.048 100.828C289.797 100.708 289.575 100.536 289.397 100.322C289.219 100.109 289.09 99.8596 289.017 99.5915C288.945 99.3234 288.931 99.0428 288.977 98.7689L289.819 92.4018C289.887 91.8051 290.173 91.2546 290.622 90.8568C291.072 90.4589 291.653 90.2421 292.254 90.2482L313.134 90.6227C313.424 90.6287 313.708 90.6964 313.97 90.8214C314.231 90.9463 314.462 91.1256 314.648 91.3473C314.834 91.5689 314.971 91.8278 315.049 92.1065C315.127 92.3853 315.145 92.6775 315.101 92.9636L314.258 99.4243C314.153 100.022 313.843 100.563 313.382 100.957C312.92 101.35 312.336 101.57 311.73 101.578Z" fill="#2FA4A1"/>
<path d="M318.19 68.0566H330.831" stroke="#F8AB5D" stroke-width="1.8" stroke-linecap="round" stroke-linejoin="round"/>
<path d="M315.289 73.5821L294.409 73.4885C294.131 73.4842 293.858 73.42 293.607 73.3003C293.356 73.1805 293.135 73.0081 292.957 72.7947C292.779 72.5813 292.649 72.3321 292.577 72.064C292.504 71.7959 292.49 71.5152 292.536 71.2413L293.379 64.9678C293.459 64.3681 293.746 63.8152 294.191 63.4048C294.635 62.9945 295.209 62.7524 295.813 62.7206L316.694 62.627C316.976 62.6287 317.255 62.6902 317.511 62.8076C317.768 62.925 317.997 63.0956 318.183 63.308C318.369 63.5204 318.507 63.7699 318.59 64.0398C318.672 64.3098 318.696 64.5942 318.66 64.8742L317.817 71.3349C317.717 71.9424 317.411 72.4971 316.951 72.9062C316.491 73.3152 315.904 73.5539 315.289 73.5821Z" fill="#E7A5C8"/>
<path d="M262.198 68.1505C262.666 64.6861 260.419 61.9707 257.235 61.9707C254.052 61.9707 251.149 64.7797 250.681 68.1505C250.213 71.5214 252.366 74.3304 255.55 74.3304C257.207 74.2426 258.78 73.5757 259.995 72.4462C261.21 71.3167 261.99 69.7964 262.198 68.1505Z" fill="#2FA4A1"/>
</svg>
